<?xml version="1.0" encoding="UTF-8"?>
<svg id="Layer_1" xmlns="http://www.w3.org/2000/svg" version="1.1" viewBox="0 0 581.3 195.4">
  <!-- Generator: Adobe Illustrator 29.1.0, SVG Export Plug-In . SVG Version: 2.1.0 Build 142)  -->
  <defs>
    <style>
      .st0, .st1 {
        fill: none;
      }

      .st2 {
        stroke: #231f20;
      }

      .st2, .st3, .st1 {
        stroke-width: 1.2px;
      }

      .st2, .st3, .st1, .st4 {
        stroke-miterlimit: 10;
      }

      .st3, .st1 {
        stroke: #fff;
      }

      .st3, .st5 {
        fill: #fff;
      }

      .st6, .st4 {
        fill: #d72027;
      }

      .st4 {
        stroke: #d72027;
        stroke-width: 1.9px;
      }
    </style>
  </defs>
  <g>
    <g>
      <path class="st5" d="M14,169.7v-92.9H0v-3.3c5.7-1,13.6-3.6,15.6-10.8h4.4v107h-6.1Z"/>
      <path class="st5" d="M52.7,125.4c-6.9,7-14,13.9-14,23.8v14.6h32.2v5.9h-38.2v-21c0-12.3,7.1-18.9,16.4-28.4,6.9-7.1,14-14,14-23.8v-12c0-10.8-3.6-17.2-12.3-17.2s-12.3,6.4-12.3,17.2v6.1h-6.1v-6c0-14.9,6.1-23.1,18.4-23.1s18.4,8.4,18.4,23.1v12.5c0,12.3-7,18.9-16.4,28.4Z"/>
      <path class="st5" d="M118.7,124.6h-9.7v45.1h-6.1V62.7h15.8c13.5,0,19.2,8.7,19.2,22.6v16.6c0,14-5.8,22.6-19.2,22.6ZM131.8,85.7c0-11.7-4.4-17.2-13.5-17.2h-9.4v50.4h9.3c9,0,13.5-5.4,13.5-17.1v-16.1Z"/>
      <path class="st5" d="M229.7,169.7h-17.4V62.7h15.9c13,0,19.2,7.4,19.2,21.8v10.4c0,10-4.6,16.1-10.3,18.5,6.6,1.6,11.8,7.2,11.8,20v13.6c0,14-5.7,22.7-19.2,22.7ZM241.4,84.9c0-10.8-4.6-16.4-13.4-16.4h-9.5v42.5h9.5c9.2,0,13.4-6.7,13.4-16.4v-9.7ZM242.9,133.8c0-11.7-4.4-17.1-13.5-17.1h-11v47.1h11c9,0,13.5-5.4,13.5-17.1v-13Z"/>
      <g>
        <g>
          <path class="st1" d="M176,65.8c-10.6,0-16.5,1.1-18.4,2-.8,7.9-.7,15.8.2,23.6.1,1.3.3,2.6.5,3.8.1.8.2,1.7.4,2.5s.2,1.7.4,2.5c0,.4.1.9.2,1.3.2,1,.3,2,.5,3l.8,4.3c.2.9.3,1.9.5,2.8.2,1.3.4,2.6.7,4,.2,1.1.4,2.1.5,3.2,0,.5.1,1,.2,1.5,0,.3,0,.5.1.8s0,.5.1.8c0,.5.1,1,.2,1.5.1,1,.3,2,.4,3,.1.8.2,1.6.3,2.4,0,.3,0,.6,0,.9.1,1,.2,2,.3,3,0,.8.1,1.7.2,2.6,0,.8,0,1.7.1,2.6,0,1.3,0,2.6.1,3.9,0,4.7-.1,9.4-.6,14.1-.5,6.1.2,6.7.4,6.9,2.3,1.9,3,2.5,12,2.5s9.6-.8,11.6-2.5c.6-.5.2-5.3,0-6.9-.6-6.3-.7-12.7-.4-19,0-1.4.1-2.7.2-4,0-.9.1-1.8.2-2.6s.2-1.8.3-2.6c.8-6.7,1.9-12.8,2.9-18.9.9-5.3,1.9-10.5,2.5-15.9.1-.9.2-1.8.3-2.7s.2-1.8.2-2.6c.1-1.3.2-2.7.2-4,.3-5.3.1-10.6-.4-15.9-1.9-.8-7.8-1.9-17.9-1.9Z"/>
          <g>
            <path class="st3" d="M154.3,92.4c.1,1.3.3,2.6.5,3.8.1.8.2,1.7.4,2.5s.2,1.7.4,2.5c1.6,10.6,3.9,20.8,4.8,32.6,0,.8.1,1.7.2,2.5s0,1.7.1,2.6c0,1.3,0,2.6,0,3.9,0,4.1-.1,8.4-.5,13-.5,6.1-.1,9.1,1.9,10.7,3.1,2.5,4.5,3.2,14,3.2s10.5-.7,13.6-3.2c2-1.6,2.1-4.6,1.6-10.7-.6-6.4-.7-12.9-.3-19.3,0-1.4.2-2.7.3-4,0-.9.2-1.8.3-2.6h0c0-.9.2-1.8.3-2.7,1.5-12.2,4.1-23,5.4-34.8.1-.9.2-1.8.3-2.7s.2-1.8.2-2.6c.1-1.3.2-2.6.2-4,.2-5.7,0-11.4-.6-17-.4-3.3-12.7-4.2-21.3-4.2s-21.3.9-21.7,4.2c-1,8.7-.9,17.4,0,26.1Z"/>
            <path class="st2" d="M157.7,91.3c.1,1.3.3,2.6.5,3.8.1.8.2,1.7.4,2.5s.2,1.7.4,2.5c0,.4.1.9.2,1.3.2,1,.3,2,.5,3l.8,4.3c.2.9.3,1.9.5,2.8.2,1.3.4,2.6.7,4,.2,1.1.4,2.1.5,3.2,0,.5.1,1,.2,1.5,0,.3,0,.5.1.8s0,.5.1.8c0,.5.1,1,.2,1.5.1,1,.3,2,.4,3,.1.8.2,1.6.3,2.4,0,.3,0,.6,0,.9.1,1,.2,2,.3,3,0,.8.1,1.7.2,2.6,0,.8,0,1.7.1,2.6,0,1.3,0,2.6.1,3.9,0,4.7-.1,9.4-.6,14.1-.5,6.1.2,6.7.4,6.9,2.3,1.9,3,2.5,12,2.5s9.6-.8,11.6-2.5c.6-.5.2-5.3,0-6.9-.6-6.3-.7-12.7-.4-19,0-1.4.1-2.7.2-4,0-.9.1-1.8.2-2.6s.2-1.8.3-2.6c.8-6.7,1.9-12.8,2.9-18.9.9-5.3,1.9-10.5,2.5-15.9.1-.9.2-1.8.3-2.7s.2-1.8.2-2.6c.1-1.3.2-2.7.2-4,.3-5.3.1-10.6-.4-15.9-2-.9-7.8-2-18-2s-16.5,1.1-18.4,2c-.8,7.9-.7,15.9.2,23.7Z"/>
          </g>
        </g>
        <path class="st5" d="M197.8,66c.1-2.1-1.3-7.3-4.5-8.6-1.8-1-1.6-3.7-2.8-3.7-.4,0-.7.3-1.1.6-1,.6-2.3.4-3.1-.5-1.1-1.1-2.1-3.3-3.3-3.7-1.9-.6-3.7,3.4-5.6,2.8-.6-.2-1.2-.9-1.9-1.1-2.2-.9-4.1,3.6-6.4,4.1-2.9.7-5.7-4.9-8.4-2.9-.6.5-1.1,1.1-1.6,1.8-1.2,1.4-1.1,2.1-2.5,2-.5,0-1.3.8-1.9,1.8-.7,1.5-1.9,6.2-1.3,7.4,0,0,29.7-3.4,44.1,0Z"/>
        <path class="st5" d="M163.7,64.9c-.3,4.1-1.9,21.1,5.6,52.1.4-26.7.7-52.6.7-52.6l-6.3.5Z"/>
      </g>
    </g>
    <g>
      <path class="st6" d="M372.2,145.5c0-1.7,0-3.2,0-4.4s.2-2.6.4-4.2c.5-3.9.9-8.1,1.1-12.4.2-4.1.7-8.1,1.5-12.1.2-.7.3-1.4.4-2.1,0-.6.2-1.2.4-1.8.5-1,1.5-1.8,2.6-2,.5,0,1-.1,1.4,0,.5,0,1,.1,1.6.2,1.5.1,2.9.5,4.2,1.2,1.2.7,2.2,1.8,2.9,3,.1.2.3.4.5.6.2.3.3.7.3,1.1.1,1.4,0,2.8-.5,4.2-.4,1.2-.6,2.5-.6,3.8,0,.5,0,1.7,0,3.5s0,3.7,0,5.7,0,3.8,0,5.4c0,.9,0,1.7.2,2.6.4-.7.8-1.5,1-2.3.4-1.1.6-1.9.8-2.4.7-1.4,1.4-3.1,2.3-5.1.9-2,1.8-4,2.9-6,1.1-2,2.2-3.9,3.3-5.7.9-1.5,2.1-2.9,3.5-4,1.2-1.1,2.5-2.1,3.9-3,1.2-.8,3-1,5.7-.8,2.5,0,4.8,1.2,6.4,3.2,1.6,1.9,2.5,4.3,2.6,6.8.2,2,.2,4.1,0,6.1-.1,2.1-.3,4.1-.5,6.1l-1.5,11.2c-.2,1.1-.4,2-.5,2.8-.1,1-.1,2,0,2.9.3-.4.6-.8.8-1.3,0-.4.2-.8.5-1.4.1-.4.3-.8.5-1.2.2-.4.4-.9.5-1.4.7-2,1.4-3.9,2.1-5.6s1.4-3.5,2.1-5.4c.9-2.4,1.9-5.1,3.1-8.2,1-2.7,2.3-5.3,3.9-7.7.5-.8,1.1-1.6,1.7-2.3.6-.7,1.2-1.4,1.7-2,.6-.5,1.4-1,2.2-1.2.7-.3,1.5-.5,2.3-.6,1.6,0,3.2.2,4.8.6,1.1.4,2.1,1.1,2.8,2.1.7.9,1.2,2,1.4,3.1.2,1.2.5,2.6.7,4.2,0,.8.2,1.9.3,3.2.1,1.3.2,2.7.3,4.2s.1,2.9.1,4.2c0,1,0,2.1-.1,3.1,0,3-.1,6-.4,9s-.5,5.7-.8,8.3c-.2,2.6-.4,4.9-.5,7,0,1.7,0,3.3.5,4.9.7,1.3,1.7,1.4,3,.2,1.7-1.6,3.1-3.4,4.2-5.4,1.5-2.5,3.1-5.3,4.7-8.6,1.6-3.3,3.1-6.5,4.5-9.6s2.5-5.8,3.5-8.2,1.6-3.8,1.9-4.4c.3-.5.8-1,1.4-1.2.6-.3,1.3-.2,1.7.3.4.4.6.5.5.4s-.1.2-.2,1c-.1.4-.2.9-.5,1.5-.3.8-.7,1.6-1.2,2.3-.5.8-1,1.5-1.4,2.3-.4.9-.7,1.8-.8,2.7-.2,1-.5,2-1,2.9-.6,1.4-1.5,3.7-2.6,6.9s-2.3,6.5-3.7,9.8c-1.3,3.1-2.7,6.2-4.3,9.1-1.5,2.8-3,4.4-4.5,4.9-.5.1-1,.2-1.5.2-.6,0-1.1.2-1.7.4-2.2.3-4.4,0-6.4-.9l-3.3-2.3c-1.5-1.4-2.8-3-3.6-4.9-.9-1.9-1.6-3.9-2-6-.5-2.3-.8-4.6-.9-7,0-2.6-.1-5.2,0-7.9,0-2.7.2-5.3.3-7.9.1-2.6.3-5,.5-7.2.1-.8.2-1.7.5-2.7s.4-2,.6-3c.2-.9.3-1.8.3-2.7,0-.7-.2-1.3-.6-1.8-1.3,1.4-2.3,3.1-3,4.9-.9,2.2-1.8,4.5-2.7,7-.9,2.5-1.8,5-2.6,7.4-.6,2-1.4,4-2.3,5.9-.7,1.7-1.2,3.4-1.7,5.2-.6,2.4-1.2,4.8-1.9,7.4-.7,2.6-1.3,4.9-2,7-.4,1.4-.9,2.7-1.6,3.9-.8.9-1.8,1.5-3,1.7-1.2.2-2.4,0-3.5-.4-1.1-.4-2.2-.9-3.2-1.4-1.6-1-2.9-2.5-3.8-4.2-.8-1.7-1.3-3.5-1.5-5.4-.2-2-.3-3.9-.1-5.9.1-2,.2-3.9.5-5.8,0-1.6.3-3.4.5-5.5.2-2.1.5-4.1.8-6.2s.5-4.1.9-6.1c.3-1.8.7-3.7,1.3-5.4.5-1.5.8-3.1.8-4.8-.1-1.1-.4-1.6-.9-1.7s-1.1.2-1.9.9c-.9.9-1.7,2-2.2,3.1-1.2,2.1-2.2,4-3.1,5.8s-1.7,3.4-2.4,5.1-1.5,3.5-2.2,5.3-1.5,3.8-2.4,5.9c-.6,1.7-1.1,3.4-1.5,5.2-.4,1.9-.9,3.7-1.4,5.4-.4,1.2-.6,2.4-.6,3.6,0,1.2-.1,2.4-.5,3.6-.2.8-.4,1.4-.5,1.9s-.3.9-.4,1.3c-.1.4-.2.8-.2,1.3,0,.5-.1,1.1-.2,1.9-.8,1.9-2.6,2.9-5.3,2.9-1,0-1.9-.4-2.7-1-1-.7-1.9-1.3-2.7-1.9-1.3-1-2.4-2.3-3.2-3.9-.7-1.5-1.2-3.1-1.4-4.7-.3-1.7-.4-3.5-.4-5.2v-5.3Z"/>
      <path class="st6" d="M500.6,137.9c-.5.4-.8.9-1.1,1.4-.3.7-.5,1.2-.8,1.7-1,2.2-2.2,4.4-3.6,6.3-1.5,2.1-3,4.2-4.4,6.2-.1.3-.3.5-.5.8l-.7.5c-.9.8-1.7,1.5-2.4,2.1-.7.6-1.5,1.1-2.3,1.4-1,.3-2,.4-3,.4-1.5-.1-2.9-.5-4.2-1-.3-.1-.7-.2-1.1-.3-.3-.1-.6-.3-.9-.5-.2-.2-.3-.3-.4-.3-.2,0-.4-.2-.5-.3-1.1-.7-2.1-1.7-2.9-2.8-.9-1.1-1.6-2.2-2.3-3.4-1.6-4-2.1-8.4-1.4-12.6.7-4.3,1.8-8.6,3.5-12.6.2-.6.5-1.2.8-1.7.3-.6.6-1.1.9-1.6l3.9-6.5c.9-1.1,2-2.4,3.2-4,1.1-1.4,2.5-2.6,4-3.6,1.1-.7,2.2-1.3,3.4-1.9,1.2-.6,2.4-1,3.7-1.3,1.3-.4,2.6-.6,3.9-.5,1.4,0,2.8.2,4.2.5l2.6.7c.5.1,1,.3,1.4.4.3.2.7.3,1.1.5s1,.4,1.8.8c1.6.8,2.4,1.6,2.5,2.4.1,1.2.4,2.4.8,3.5l2.1-.3c.6.8,1.3,1.6,2.1,2.3.8.8,1.4,1.7,1.8,2.8.5,2.2.4,4.5-.2,6.7-.6,2.6-1.1,4.9-1.4,6.8,0,.3-.1.7-.2,1,0,.3,0,.6-.2.8-.3,1-.5,1.7-.6,2,0,.2-.1.5-.2.8,0,.2,0,.5,0,.9s-.1,1.1-.2,2.1c-.3,2.4-.7,4.7-1.2,7-.4,1.6-.6,3.3-.6,5-.1,2.1-.1,4.3,0,6.4,0,2.1.4,4.1.9,6.1.3,1.5,1,3,2.1,4.1,1-.2,1.9-.7,2.6-1.4.5-.5,1.2-1.5,2.3-2.9l2.4-3.4c.5-.7,1-1.5,1.4-2.3.3-.7.7-1.4,1.1-2.2s1-1.8,1.7-3.1c.2-.4.6-1.2,1.1-2.5s1.2-2.8,2-4.5,1.6-3.7,2.4-5.7l2.5-5.9c.7-1.6,1.4-3.1,2-4.5.5-1.2,1.1-2.3,1.7-3.3.6-.8,1.1-1.3,1.6-1.4s1,.2,1.5,1.1c-.2.7-.3,1.5-.2,2.2,0,.6,0,1.2-.2,1.7-2.1,6-4.5,12.3-7.3,18.8-2.6,6.3-5.9,12.4-9.7,18.1l-2.6,3.3-.5.4-.6.6c-.9,1-2.1,1.7-3.3,2.1-1.3.5-2.6.6-3.9.1l-1.4-.2c-.2,0-.4,0-.7,0-.2,0-.3,0-.5,0-.2-.1-.5-.2-.7-.4-.6-.5-1.4-.9-2.1-1.2-.2,0-.5-.2-1.1-.8l-3-3.9c-.2-.3-.5-.8-.8-1.4-.4-.7-.7-1.4-1-2.1-.3-.7-.5-1.4-.8-2.2-.2-.5-.3-1-.3-1.5,0-.7,0-1.5-.2-2.2-.1-.5-.3-.9-.4-1.3-.1-.5-.2-1-.2-1.4,0-.9,0-1.8.2-2.6.1-1,.1-2.1,0-3.1-.1-1.1-.1-2.2,0-3.2.1-.9.3-1.8.5-2.7.3-1.4.4-2.8.2-4.2ZM480.6,153c1.1-.4,2.2-.9,3.1-1.7,1.1-.8,2.1-1.7,3-2.7,1-1,1.9-2.1,2.7-3.2.9-1.2,1.6-2.2,2.3-3.2l5.3-8.2c.2-.3.8-1.3,1.7-2.9s1.8-3.4,2.8-5.3l2.6-5.3c.5-.9.9-1.9,1.2-2.9.2-.8.2-1,.2-.7s-.3.1-.5-.7c0-.2,0-.4,0-.6,0-.3,0-.6,0-.9,0-.6-.2-1-.2-1.1s-.2-.2-.5-.6c-.3-.7-.5-1.2-.6-1.4,0-.2-.2-.3-.3-.4l-.4-.2c-.3-.2-.6-.4-.8-.7-.4-.3-.8-.7-1-1.2-.1-.3-.6-.4-1.4-.3-.9.2-1.8.6-2.4,1.3-1,.9-2,1.9-2.9,2.9-1,1.1-1.9,2.1-2.7,3.2-.7.8-1.2,1.6-1.7,2.5l-4.2,7.1c-.2.5-.5,1-.8,1.5-.3.5-.6,1-.8,1.4-.4.4-.6.9-.8,1.4-.2.5-.4,1.1-.7,1.6-.5,1-.8,2.1-1,3.2-.2,1.1-.5,2.2-.8,3.3-.3.9-.6,2-.9,3.4-.3,1.4-.5,2.8-.6,4.2-.1,1.4,0,2.7,0,4.1,0,1.1.4,2.1,1,3h0Z"/>
      <path class="st6" d="M551.1,155.6c-.7-1.7-1.6-3.4-2.5-5.1-.9-1.5-1.7-2.8-2.5-4.1-.8-1.3-1.6-2.5-2.3-3.9-.8-1.3-1.5-2.7-2.2-4.2-.2-.5-.3-.7-.4-.7s-.2-.1-.4-.5l-2.1-3.8c-.5-1.8-1-3.2-1.4-4.3-.5-1.4-.8-2.9-1.1-4.5-.5-2.6-.7-5.3-.5-8,.2-2.6.9-5.1,2-7.4,1.3-3.1,3.4-5.8,5.9-8,2.3-1.9,5.1-3.2,8-3.9,1-.2,2-.2,3-.1.9.2,1.7.5,2.5.9.9.4,1.7.8,2.5,1.4.7.5,1.3,1.1,1.7,1.7.5.8.9,1.7,1.3,2.7.5,1.2.8,2.3,1.1,3.6.3,1.2.5,2.4.8,3.5.2.7.2,1.5.1,2.2-.6.9-1,1.5-1.3,1.8-.5.4-1.2.6-1.9.6-.3,0-.5-.4-.7-1s-.3-1.2-.5-2-.3-1.7-.5-2.6c-.2-.9-.5-1.7-.8-2.6-.4-.9-.7-1.6-.9-2.2-.2-.5-.4-1-.7-1.5-.3-.5-.6-.9-1-1.2-.6-.4-1.3-.8-2-1-1.2.6-2.2,1.5-2.8,2.6-.7,1.3-1.3,2.8-1.8,4.2-.5,1.6-.8,3.1-1,4.8-.2,1.3-.2,2.7-.2,4,0,2.7.4,5.3,1.3,7.9.9,2.6,1.9,5.1,3.1,7.5,1.2,2.5,2.4,5,3.6,7.5,1.2,2.5,2.1,5.1,2.7,7.9,1.5-1.2,2.9-2.4,4.1-3.8,1.6-1.8,3.2-3.7,4.9-5.7s3.2-4,4.6-5.9,2.5-3.4,3.3-4.4c.3-.3.6-.7.8-1.1.3-.4.7-.7,1.1-.8,1.7,0,2.7.4,2.8.9.2,1,.3,2,.2,3-1,.3-1.6.7-1.7,1.2-.2.8-.6,1.4-1.2,2-.3.3-.6.6-.8,1-.1.3-.3.7-.5,1l-7,8.5c-.8.8-1.5,1.6-2.2,2.3-.8.9-1.6,1.7-2.5,2.5-.9,1-1.7,1.8-2.3,2.3-.5.4-.9.9-1.4,1.4-.3.4-.5.8-.6,1.3,0,.6,0,1.2.2,1.7.3,1.8.4,3.6.2,5.4-.2,2.1-.5,4.2-1,6.3-.4,2.1-1,4.1-1.7,6.1-.6,1.7-1.3,3.4-2.3,4.9-.7,1.2-1.6,2.3-2.6,3.2-1.2.8-2.6,1.4-4,1.8-2.1.7-4.4.5-6.4-.5-2-1-3.5-2.8-4-5-.6-2.1-.5-4.4.3-6.5.8-2.2,1.9-4.3,3.2-6.3,1.3-1.9,2.8-3.7,4.4-5.4,1.6-1.6,2.8-3,3.7-4ZM552.7,160.7c-1,.7-1.9,1.5-2.7,2.4-1.1,1.2-2,2.4-2.9,3.7-.9,1.3-1.7,2.7-2.4,4.1-.6,1.1-1.1,2.2-1.4,3.4-.3.9-.2,1.9.2,2.7.4.7,1,1.3,1.7,1.7.7.4,1.5.6,2.3.5.8,0,1.6-.4,2.1-1,1.2-1.5,2.1-3.2,2.6-5.1.6-1.9,1-3.8,1-5.8,0-1.1.2-2.3.2-3.6,0-1.1-.3-2.1-.8-3.1h0Z"/>
      <g>
        <path class="st4" d="M269,120.3c-3.3,0-5.8-.9-5.9-4.6,0-3.5,1.5-7.5,4.1-11.6-2.5-3.1-4.5-6.7-5.7-10.6-4.7,5.3-7.4,10.8-7.3,15.5.2,8.9,13.3,16,19.9,16,3.2-.1,6.4-.7,9.4-1.8l-4.5-5.2c-4.9,1.6-8.4,2.3-10.1,2.3Z"/>
        <path class="st4" d="M320.7,95.9c1.4-1.6,0-1.4-.9-.7-13.5,10.2-25.3,16.6-34.2,20.4l4.2,4.8.2.2c8.5-4.1,19.1-11.6,30.8-24.7Z"/>
        <path class="st0" d="M267.3,104.1c-2.6,4.2-4.2,8.2-4.1,11.6.1,3.7,2.5,4.6,5.9,4.6s5.2-.7,10.1-2.3l-9.6-11.2c-.8-.9-1.5-1.8-2.2-2.7Z"/>
        <path class="st0" d="M297.4,89.1h-6.1v-4.4c0-1,0-1.9,0-2.8-7.5,4.6-14.2,10.3-19.9,16.9.8,1.1,1.6,2.1,2.5,3.1l11.8,13.7c9-3.8,20.8-10.1,34.2-20.4.9-.6,2.3-.8.9.7-11.7,13.1-22.4,20.6-30.9,24.7,3.2,3.8,5.7,8.3,7.2,13.1,11.3-8.8,23.7-17.7,35.4-25.6.8-8.2,2-18.3,1.8-23.8-.2-8.2-1.5-13.3-11.5-13.3s-17.1,2.9-25.6,7.5c.2,2,.3,3.9.3,5.9v4.8Z"/>
        <path class="st0" d="M277.1,163.6c.6,0,1.2.1,1.8.1,8,0,13-6.7,13.7-16.5-5.8,5.7-11,11.3-15.5,16.4Z"/>
        <path class="st0" d="M279.3,65.8c-9,0-13,7.7-13,18.9,0,1.3.1,2.5.4,3.8,6.9-6,14.7-10.8,23.2-14.4-1.7-5.1-5-8.3-10.5-8.3Z"/>
        <path class="st5" d="M271.3,98.7c-1.5,1.7-2.8,3.5-4,5.4.7.9,1.4,1.8,2.2,2.7l9.6,11.2c1.9-.7,4.1-1.4,6.4-2.4l-11.8-13.7c-.9-1-1.7-2.1-2.5-3.1Z"/>
        <path class="st5" d="M268.6,158.1c-2-3.2-3-7.8-3-13.4v-4.6h-6.1v4.9c0,7.5,1.6,13.4,4.7,17.6,1.4-1.5,2.8-3,4.4-4.6Z"/>
        <path class="st4" d="M291.2,81.8c-.1-2.6-.6-5.2-1.3-7.7-8.4,3.5-16.2,8.4-23.2,14.4.7,3.7,2.3,7.3,4.6,10.3,5.8-6.6,12.5-12.3,19.9-16.9Z"/>
        <path class="st4" d="M277.1,163.6c4.4-5.1,9.7-10.7,15.5-16.4,0-.8.1-1.7.1-2.5,0-2.3-.3-4.6-.9-6.9-8.1,6.3-15.8,13.1-23.1,20.2,1.8,3.1,4.9,5.2,8.5,5.6Z"/>
        <path class="st4" d="M264.2,162.6c-4.7,5.1-7.9,9.6-9.1,13.1-3.3,9.8,7.4,17.1,13.4,18.6,5,1.2,16.2-7.2,23.3-14.5.8-.7-.2-.9-1.2-.4-7,4-19.9,10.5-25.5,10.5-1.2.2-2.4-.7-2.5-2,0-.2,0-.4,0-.6-.1-3.8,3.8-10.5,10.3-18.7-3.5-1-6.6-3.1-8.7-6.1Z"/>
        <path class="st4" d="M422.4,81.8c-.3-2.8-1.1-7.4-3.8-11.2-1.7-2.6-4.9-5.3-7.6-5.3-15,0-45.6,20.5-67.3,35l1.2-8.8c.7-7.7-7.6-24.3-24.2-24.3-8.6.1-17,1.6-25.1,4.5.7,2.2,1.1,4.4,1.4,6.6,8.6-4.5,17.6-7.4,25.6-7.4s11.3,5.1,11.5,13.3c.2,5.5-.9,15.7-1.8,23.8-11.8,7.9-24.1,16.8-35.4,25.6.8,2.5,1.3,5.1,1.5,7.8,10.5-9.9,21.6-19.1,33.2-27.7-2.4,19.9-5.8,42.6-4.4,53.4,1,8.4,10,15.4,22.6,15.4s15.5-11.8,17.1-15.1c.1-.2,0-.4-.1-.5-.1,0-.3,0-.4,0-15.5,10.2-20.6,10.7-23.3,10.7-3.9,0-4.8-4.3-5-11-.4-16.4,2.4-41.1,4.9-60.9,17-11.3,46.8-31.8,64.6-31.8s10.8,2.9,14.1,8.2c.5.8.7.6.6-.3Z"/>
        <path class="st5" d="M291.7,137.8c.6,2.2.9,4.6.9,6.9,0,.9,0,1.7-.1,2.5,1.9-1.9,3.9-3.8,6-5.8-.2-2.6-.7-5.2-1.5-7.8-1.8,1.4-3.5,2.8-5.3,4.2Z"/>
        <path class="st5" d="M291.2,81.8c1.9-1.2,3.9-2.3,5.9-3.4-.2-2.2-.7-4.5-1.4-6.6-2,.7-3.9,1.4-5.8,2.3.8,2.5,1.2,5.1,1.3,7.7Z"/>
        <path class="st5" d="M289.7,120.4l-4.2-4.8c-2.3,1-4.5,1.8-6.4,2.4l4.5,5.2c2.1-.7,4.2-1.6,6.3-2.6l-.2-.2Z"/>
        <path class="st5" d="M289.8,120.6c-2,1-4.1,1.9-6.3,2.6l1.8,2.1c3,3.6,5.2,7.9,6.3,12.4,1.7-1.4,3.5-2.8,5.3-4.2-1.5-4.8-3.9-9.2-7.1-13Z"/>
        <path class="st5" d="M278.8,163.7c-.6,0-1.2,0-1.8-.1-1.5,1.7-2.9,3.4-4.2,5.1,2,.6,4,.8,6,.8,12.6,0,19.9-10.3,19.9-24.6s0-2.3-.2-3.4c-2.1,1.9-4.1,3.9-6,5.8-.8,9.8-5.7,16.5-13.7,16.5Z"/>
        <path class="st4" d="M268.6,158.1c-1.6,1.6-3,3.1-4.4,4.6,2.1,2.9,5.2,5.1,8.7,6.1,1.3-1.6,2.7-3.3,4.2-5.1-3.6-.4-6.7-2.5-8.5-5.6Z"/>
        <path class="st5" d="M291.3,84.6v4.4h6.1v-4.8c0-2-.1-3.9-.3-5.9-2,1-3.9,2.2-5.9,3.4,0,.9,0,1.9,0,2.8Z"/>
        <path class="st5" d="M266.7,88.4c-.2-1.3-.3-2.5-.4-3.8,0-11.2,3.9-18.9,13-18.9s8.9,3.2,10.5,8.3c1.9-.8,3.9-1.6,5.8-2.3-2.4-7.6-7.6-12-16.4-12-12.8,0-19,9.5-19,24.6,0,3.1.4,6.1,1.3,9.1,1.6-1.8,3.3-3.5,5-5Z"/>
        <path class="st4" d="M271.3,98.7c-2.3-3-3.8-6.6-4.6-10.3-1.8,1.6-3.5,3.3-5.1,5.1,1.2,3.8,3.1,7.4,5.7,10.6,1.2-1.9,2.5-3.7,4-5.4Z"/>
      </g>
    </g>
  </g>
  <g>
    <path class="st5" d="M130.8,7.7v18.4c0,1.4,0,2.3.2,2.6.1.4.4.7.8.9.4.2,1,.4,1.9.4h.5v.6h-11.9v-.6h.6c1,0,1.6-.1,2.1-.3.4-.2.7-.5.8-.9.1-.4.2-1.3.2-2.7v-11.7c0-1,0-1.7-.1-2,0-.3-.3-.5-.6-.7-.3-.2-.6-.3-.9-.3-.6,0-1.3.2-2.1.5l-.3-.6,8.3-3.8h.5Z"/>
    <path class="st5" d="M158.5,18c1.6,1.2,2.7,2.2,3.3,3.2.6,1,.9,2.1.9,3.4s-.7,3.4-2.1,4.6c-1.4,1.3-3.2,1.9-5.6,1.9s-3.9-.5-5.2-1.6c-1.2-1.1-1.8-2.4-1.8-4s.4-2.3,1.1-3.2c.7-.9,1.9-1.7,3.5-2.5-1.8-1.4-2.9-2.5-3.4-3.3-.5-.9-.8-1.9-.8-3s.6-2.8,1.9-4,3-1.7,5.3-1.7,3.8.5,5,1.5c1.2,1,1.7,2.2,1.7,3.6s-.3,2-.9,2.8c-.6.8-1.6,1.5-2.9,2.2ZM153.9,20.7c-.3.3-.6.6-.7.8-.2.4-.4,1-.6,1.7-.2.7-.3,1.5-.3,2.3s.1,1.9.4,2.6c.3.7.6,1.2,1.1,1.5.5.3,1,.5,1.5.5.8,0,1.5-.3,2-.9.6-.6.8-1.4.8-2.4,0-2.1-1.4-4.2-4.3-6.1ZM157.2,17.2c.4-.6.7-1.2.9-1.9.2-.7.3-1.4.3-2.3,0-1.4-.3-2.5-.9-3.3-.5-.6-1.1-.9-1.9-.9s-1.4.3-1.9.8c-.5.5-.8,1.2-.8,2s.3,1.6.9,2.5c.6.9,1.7,1.9,3.4,3Z"/>
    <path class="st5" d="M195.6,8.2v6.1h-.6c-.4-1.4-.7-2.4-1.2-3s-1-1.1-1.8-1.5c-.4-.2-1.2-.3-2.2-.3h-1.7v17.4c0,1.2,0,1.9.2,2.2.1.3.4.5.7.8.4.2.9.3,1.5.3h.7v.6h-11.8v-.6h.7c.7,0,1.2-.1,1.6-.3.3-.2.5-.4.7-.8.1-.3.2-1,.2-2.1V9.5h-1.6c-1.5,0-2.6.3-3.3,1-1,.9-1.6,2.2-1.8,3.8h-.6v-6.1h20.2Z"/>
    <path class="st5" d="M216.3,19.9v7c0,1.2,0,1.9.2,2.2.1.3.4.5.7.8.4.2.9.3,1.5.3h.7v.6h-11.8v-.6h.7c.7,0,1.2-.1,1.6-.3.3-.2.5-.4.7-.8.1-.3.2-1,.2-2.1v-14.8c0-1.2,0-1.9-.2-2.2-.1-.3-.4-.5-.7-.8-.4-.2-.9-.3-1.5-.3h-.7v-.6h11.8v.6h-.7c-.7,0-1.2.1-1.6.3-.3.2-.5.4-.7.8-.1.3-.2,1-.2,2.1v6.4h8v-6.4c0-1.2,0-1.9-.2-2.2-.1-.3-.4-.5-.7-.8-.4-.2-.9-.3-1.5-.3h-.7v-.6h11.8v.6h-.7c-.7,0-1.2.1-1.6.3-.3.2-.5.4-.7.8-.1.3-.2,1-.2,2.1v14.8c0,1.2,0,1.9.2,2.2.1.3.4.5.7.8.4.2.9.3,1.5.3h.7v.6h-11.8v-.6h.7c.7,0,1.2-.1,1.6-.3.3-.2.5-.4.7-.8.1-.3.2-1,.2-2.1v-7h-8Z"/>
    <path class="st5" d="M274.6,24.3h-8l-.9,2.2c-.3.7-.5,1.3-.5,1.8s.3,1.1.8,1.4c.3.2,1,.3,2.2.4v.6h-7.5v-.6c.8-.1,1.5-.5,2-1s1.2-1.7,1.9-3.4l8.1-18h.3l8.1,18.5c.8,1.7,1.4,2.9,1.9,3.3.4.3.9.5,1.6.6v.6h-10.9v-.6h.4c.9,0,1.5-.1,1.8-.4.2-.2.4-.4.4-.8s0-.4,0-.6c0,0-.2-.5-.5-1.2l-1.2-2.8ZM274,23.1l-3.4-7.8-3.5,7.8h6.8Z"/>
    <path class="st5" d="M303.7,8.2l11.1,14v-9.7c0-1.4-.2-2.3-.6-2.7-.5-.6-1.4-1-2.7-.9v-.6h7.4v.6c-1,.1-1.6.3-1.9.5-.3.2-.6.5-.8.9-.2.4-.3,1.2-.3,2.2v18.7h-.6l-15.2-18.7v14.3c0,1.3.3,2.2.9,2.6.6.5,1.3.7,2,.7h.5v.6h-8v-.6c1.2,0,2.1-.3,2.6-.8s.7-1.3.7-2.5v-15.9l-.5-.6c-.5-.6-.9-1-1.3-1.2-.4-.2-.9-.3-1.6-.3v-.6h8Z"/>
    <path class="st5" d="M338.4,8.2l11.1,14v-9.7c0-1.4-.2-2.3-.6-2.7-.5-.6-1.4-1-2.7-.9v-.6h7.4v.6c-1,.1-1.6.3-1.9.5-.3.2-.6.5-.8.9-.2.4-.3,1.2-.3,2.2v18.7h-.6l-15.2-18.7v14.3c0,1.3.3,2.2.9,2.6.6.5,1.3.7,2,.7h.5v.6h-8v-.6c1.2,0,2.1-.3,2.6-.8s.7-1.3.7-2.5v-15.9l-.5-.6c-.5-.6-.9-1-1.3-1.2-.4-.2-.9-.3-1.6-.3v-.6h8Z"/>
    <path class="st5" d="M365.5,8.2h11.6v.6h-.6c-.9,0-1.5,0-1.8.3-.3.2-.6.4-.7.8-.1.3-.2,1.1-.2,2.4v11c0,2,.2,3.3.5,4,.3.7.8,1.2,1.5,1.6s1.6.6,2.6.6,2.3-.3,3.1-.8c.9-.5,1.5-1.3,1.9-2.3.4-1,.6-2.6.6-5v-9.2c0-1-.1-1.7-.3-2.2s-.5-.7-.8-.9c-.5-.3-1.2-.4-2.1-.4v-.6h7.8v.6h-.5c-.6,0-1.2.1-1.6.4-.4.3-.7.6-.9,1.1-.1.4-.2,1-.2,1.9v8.5c0,2.6-.2,4.6-.5,5.7-.3,1.2-1.2,2.3-2.5,3.2s-3.2,1.5-5.5,1.5-3.5-.3-4.5-.8c-1.5-.7-2.5-1.6-3.1-2.7-.6-1.1-.9-2.6-.9-4.5v-11c0-1.3,0-2.1-.2-2.4s-.4-.6-.7-.8c-.4-.2-1-.3-2-.3v-.6Z"/>
    <path class="st5" d="M413.6,24.3h-8l-.9,2.2c-.3.7-.5,1.3-.5,1.8s.3,1.1.8,1.4c.3.2,1,.3,2.2.4v.6h-7.5v-.6c.8-.1,1.5-.5,2-1s1.2-1.7,1.9-3.4l8.1-18h.3l8.1,18.5c.8,1.7,1.4,2.9,1.9,3.3.4.3.9.5,1.6.6v.6h-10.9v-.6h.4c.9,0,1.5-.1,1.8-.4.2-.2.4-.4.4-.8s0-.4,0-.6c0,0-.2-.5-.5-1.2l-1.2-2.8ZM413.1,23.1l-3.4-7.8-3.5,7.8h6.8Z"/>
    <path class="st5" d="M455.7,22.8l-.8,7.9h-20v-.6h.7c.7,0,1.2-.1,1.6-.3.3-.2.5-.4.7-.8.1-.3.2-1,.2-2.1v-14.8c0-1.2,0-1.9-.2-2.2-.1-.3-.4-.5-.7-.8-.4-.2-.9-.3-1.5-.3h-.7v-.6h12v.6h-1c-.7,0-1.2.1-1.6.3-.3.2-.5.4-.7.8-.1.3-.2,1-.2,2.1v14.3c0,1.2,0,1.9.2,2.2s.4.6.8.7c.3,0,.9.1,2,.1h1.9c1.2,0,2.2-.2,3-.6.8-.4,1.5-1.1,2.1-2,.6-.9,1.1-2.2,1.7-4h.7Z"/>
  </g>
  <g>
    <rect class="st6" x="19.1" y="16.9" width="85.5" height="4.3"/>
    <rect class="st6" x="476.8" y="16.9" width="85.5" height="4.3"/>
  </g>
</svg>