<?xml version="1.0" encoding="UTF-8"?>
<svg id="Layer_1" xmlns="http://www.w3.org/2000/svg" version="1.1" viewBox="0 0 550.8 549.6">
  <!-- Generator: Adobe Illustrator 29.1.0, SVG Export Plug-In . SVG Version: 2.1.0 Build 142)  -->
  <defs>
    <style>
      .st0, .st1, .st2 {
        stroke: #fff;
        stroke-miterlimit: 10;
        stroke-width: 1px;
      }

      .st0, .st3 {
        fill: #fff;
      }

      .st2 {
        fill: none;
      }

      .st4 {
        opacity: .4;
      }
    </style>
  </defs>
  <g class="st4">
    <g>
      <path class="st2" d="M276.6,130.9c-45,0-70.1,3.5-78.4,6.4-3.7,28.4-2.5,53.4.8,77.1.6,4.2,1.3,8.4,2,12.5.5,2.7,1,5.4,1.5,8.2.5,2.7,1,5.4,1.6,8.2.3,1.4.6,2.8.9,4.2.7,3.3,1.4,6.6,2.2,9.9,1.1,4.7,2.1,9.4,3.2,14.1.7,3.1,1.4,6.2,2.1,9.3,1,4.3,1.9,8.6,2.9,13,.7,3.5,1.5,7,2.2,10.5.3,1.6.6,3.2,1,4.9.2.8.3,1.6.5,2.4.2.8.3,1.6.5,2.5.3,1.6.6,3.3.9,5,.6,3.3,1.1,6.6,1.6,10,.4,2.6.8,5.2,1.1,7.8.1,1,.3,1.9.4,2.9.5,3.2.8,6.5,1.1,9.9.3,2.7.6,5.5.7,8.3.2,2.7.4,5.5.5,8.4.3,4.2.4,8.4.5,12.8.2,14.4-.4,29.6-2.3,46-2.3,20,.7,21.9,1.7,22.5,9.8,6.2,12.8,8,51.2,8s40.7-2.4,49.5-8c2.7-1.7.9-17.3.3-22.5-2.6-22.5-2.9-42.9-1.6-61.9.2-4.4.6-8.8,1.1-13,.2-2.9.6-5.8.9-8.6.4-2.9.7-5.8,1.2-8.6,3.2-21.7,7.9-41.8,12.5-61.6,4-17.3,8-34.3,10.8-51.8.5-2.9.9-5.7,1.3-8.6.4-2.8.7-5.7,1.1-8.6.5-4.3.8-8.7,1.1-13,1.1-16.2.7-33.3-1.7-51.9-8.3-2.8-33.3-6.5-76.5-6.5Z"/>
      <g>
        <path class="st0" d="M184.5,217.7c.6,4.2,1.2,8.4,2,12.5.5,2.7,1,5.5,1.5,8.2.5,2.7,1,5.4,1.6,8.2,7,34.4,16.5,67.7,20.2,106.4.3,2.7.5,5.5.7,8.3.2,2.7.4,5.5.5,8.4.2,4.2.3,8.4.3,12.8.1,13.3-.5,27.3-2.3,42.3-2.3,20-.6,29.6,8,34.9,13,8.1,19,10.3,59.5,10.3s44.8-2.2,57.8-10.3c8.6-5.4,9-14.9,6.6-34.9-2.6-22.9-2.8-43.6-1.3-62.9.3-4.4.7-8.7,1.2-13,.3-2.9.7-5.8,1.1-8.6h0c.4-2.9.8-5.8,1.2-8.7,6.2-39.9,17.5-74.9,23.2-113.4.5-2.9.8-5.7,1.2-8.6.4-2.8.6-5.7.9-8.6.4-4.3.7-8.6,1-13,1-17.3.4-35.5-2.5-55.5-1.6-10.9-54.1-13.9-90.5-13.9s-90.8,2.9-92.3,13.9c-4.6,31.8-3.4,59.3.3,85.3Z"/>
        <path class="st1" d="M199,214.3c.6,4.2,1.3,8.4,2,12.5.5,2.7,1,5.4,1.5,8.2.5,2.7,1,5.4,1.6,8.2.3,1.4.6,2.8.9,4.2.7,3.3,1.4,6.6,2.2,9.9,1.1,4.7,2.1,9.4,3.2,14.1.7,3.1,1.4,6.2,2.1,9.3,1,4.3,1.9,8.6,2.9,13,.7,3.5,1.5,7,2.2,10.5.3,1.6.6,3.2,1,4.9.2.8.3,1.6.5,2.4.2.8.3,1.6.5,2.5.3,1.6.6,3.3.9,5,.6,3.3,1.1,6.6,1.6,10,.4,2.6.8,5.2,1.1,7.8.1,1,.3,1.9.4,2.9.5,3.2.8,6.5,1.1,9.9.3,2.7.6,5.5.7,8.3.2,2.7.4,5.5.5,8.4.3,4.2.4,8.4.5,12.8.2,14.4-.4,29.6-2.3,46-2.3,20,.7,21.9,1.7,22.5,9.8,6.2,12.8,8,51.2,8s40.7-2.4,49.5-8c2.7-1.7.9-17.3.3-22.5-2.6-22.5-2.9-42.9-1.6-61.9.2-4.4.6-8.8,1.1-13,.2-2.9.6-5.8.9-8.6.4-2.9.7-5.8,1.2-8.6,3.2-21.7,7.9-41.8,12.5-61.6,4-17.3,8-34.3,10.8-51.8.5-2.9.9-5.7,1.3-8.6.4-2.8.7-5.7,1.1-8.6.5-4.3.8-8.7,1.1-13,1.1-16.2.7-33.3-1.7-51.9-8.3-2.8-33.3-6.5-76.5-6.5s-70.1,3.5-78.4,6.4c-3.7,28.4-2.5,53.4.8,77.1Z"/>
      </g>
    </g>
    <path class="st3" d="M369.4,131.6c.6-6.9-5.5-23.9-19-28-7.8-3.1-6.9-12.1-11.7-12-1.6,0-3.1,1.1-4.6,1.8-4.3,2-9,1.4-13-1.7-4.8-3.7-8.7-10.7-14-12-8.2-2-15.7,11.1-23.9,9.2-2.8-.6-5.3-2.9-8-3.7-9.4-2.9-17.6,11.6-27.2,13.4-12.2,2.3-24.1-16.1-35.6-9.4-2.4,1.4-4.5,3.8-6.8,5.8-5.3,4.6-4.7,6.9-10.7,6.5-2.3-.1-5.7,2.5-7.9,5.8-2.9,4.8-8,20.2-5.4,24.3.1.2,126.2-10.9,187.8,0Z"/>
    <path class="st3" d="M224.5,132.2c-1.2,13.3-8,68.8,23.9,169.8,1.8-87,2.9-171.5,2.9-171.5,0,0-25.3,1.6-26.8,1.7Z"/>
  </g>
</svg>