<?xml version="1.0" encoding="UTF-8"?>
<svg id="Layer_1" xmlns="http://www.w3.org/2000/svg" version="1.1" viewBox="0 0 226.6 467.8">
  <!-- Generator: Adobe Illustrator 29.1.0, SVG Export Plug-In . SVG Version: 2.1.0 Build 142)  -->
  <defs>
    <style>
      .st0, .st1, .st2 {
        stroke: #fff;
        stroke-miterlimit: 10;
        stroke-width: 1px;
      }

      .st0, .st3 {
        fill: #fff;
      }

      .st2 {
        fill: none;
      }
    </style>
  </defs>
  <g>
    <path class="st2" d="M114.8,61.5c-53.9,0-83.9,4.2-93.9,7.6-4.4,34-3,63.9.9,92.3.7,5.1,1.6,10.1,2.4,15,.6,3.3,1.2,6.5,1.8,9.8.6,3.3,1.2,6.5,1.9,9.8.4,1.7.7,3.3,1.1,5,.8,3.9,1.7,7.9,2.6,11.9,1.3,5.6,2.5,11.3,3.8,16.9.8,3.7,1.7,7.4,2.5,11.2,1.2,5.2,2.3,10.3,3.4,15.6.9,4.1,1.8,8.3,2.6,12.6.4,1.9.8,3.9,1.2,5.9.2,1,.4,2,.6,2.9.2,1,.4,2,.6,3,.4,2,.7,3.9,1.1,6,.7,3.9,1.3,7.9,1.9,11.9.5,3.1.9,6.2,1.3,9.4.2,1.2.3,2.3.4,3.5.6,3.9,1,7.8,1.3,11.8.3,3.3.7,6.6.9,10,.3,3.3.5,6.6.6,10,.3,5,.5,10.1.6,15.3.3,17.2-.5,35.5-2.8,55.1-2.8,23.9.9,26.2,2,26.9,11.8,7.4,15.3,9.6,61.4,9.6s48.7-2.9,59.4-9.6c3.3-2.1,1.1-20.8.4-26.9-3.1-26.9-3.4-51.4-1.9-74.1.3-5.3.7-10.5,1.3-15.6.3-3.5.7-6.9,1.1-10.3.4-3.5.9-6.9,1.4-10.3,3.8-26,9.4-50,14.9-73.8,4.8-20.8,9.6-41.1,12.9-62.1.6-3.4,1.1-6.9,1.6-10.4.4-3.4.9-6.8,1.3-10.3.6-5.2,1-10.4,1.3-15.6,1.3-19.4.9-39.9-2-62.2-10-3.4-39.9-7.7-91.7-7.7Z"/>
    <g>
      <path class="st0" d="M4.4,165.5c.7,5.1,1.5,10.1,2.4,15,.6,3.3,1.2,6.6,1.8,9.8.6,3.3,1.2,6.5,1.9,9.8,8.4,41.2,19.8,81.1,24.3,127.5.3,3.3.6,6.6.8,10,.3,3.3.4,6.6.6,10,.2,5,.4,10.1.4,15.3.2,15.9-.6,32.7-2.7,50.6-2.8,24-.7,35.4,9.6,41.9,15.6,9.7,22.8,12.4,71.3,12.4s53.7-2.7,69.3-12.4c10.2-6.4,10.7-17.8,7.9-41.9-3.2-27.4-3.3-52.3-1.6-75.4.3-5.3.8-10.5,1.4-15.6.4-3.5.8-6.9,1.3-10.3h0c.4-3.5.9-6.9,1.5-10.4,7.4-47.9,20.9-89.8,27.7-135.8.6-3.4,1-6.9,1.4-10.4.5-3.4.8-6.8,1.1-10.3.5-5.2.9-10.3,1.2-15.6,1.2-20.7.4-42.6-3-66.5-1.9-13.1-64.8-16.6-108.4-16.6S5.9,50.3,4,63.4C-1.4,101.4,0,134.4,4.4,165.5Z"/>
      <path class="st1" d="M21.8,161.4c.7,5.1,1.6,10.1,2.4,15,.6,3.3,1.2,6.5,1.8,9.8.6,3.3,1.2,6.5,1.9,9.8.4,1.7.7,3.3,1.1,5,.8,3.9,1.7,7.9,2.6,11.9,1.3,5.6,2.5,11.3,3.8,16.9.8,3.7,1.7,7.4,2.5,11.2,1.2,5.2,2.3,10.3,3.4,15.6.9,4.1,1.8,8.3,2.6,12.6.4,1.9.8,3.9,1.2,5.9.2,1,.4,2,.6,2.9.2,1,.4,2,.6,3,.4,2,.7,3.9,1.1,6,.7,3.9,1.3,7.9,1.9,11.9.5,3.1.9,6.2,1.3,9.4.2,1.2.3,2.3.4,3.5.6,3.9,1,7.8,1.3,11.8.3,3.3.7,6.6.9,10,.3,3.3.5,6.6.6,10,.3,5,.5,10.1.6,15.3.3,17.2-.5,35.5-2.8,55.1-2.8,23.9.9,26.2,2,26.9,11.8,7.4,15.3,9.6,61.4,9.6s48.7-2.9,59.4-9.6c3.3-2.1,1.1-20.8.4-26.9-3.1-26.9-3.4-51.4-1.9-74.1.3-5.3.7-10.5,1.3-15.6.3-3.5.7-6.9,1.1-10.3.4-3.5.9-6.9,1.4-10.3,3.8-26,9.4-50,14.9-73.8,4.8-20.8,9.6-41.1,12.9-62.1.6-3.4,1.1-6.9,1.6-10.4.4-3.4.9-6.8,1.3-10.3.6-5.2,1-10.4,1.3-15.6,1.3-19.4.9-39.9-2-62.2-10-3.4-39.9-7.7-91.7-7.7s-83.9,4.2-93.9,7.6c-4.4,34-3,63.9.9,92.3Z"/>
    </g>
  </g>
  <path class="st3" d="M225.9,62.3c.8-8.2-6.6-28.6-22.7-33.5-9.4-3.8-8.3-14.5-14-14.4-1.9,0-3.7,1.3-5.5,2.1-5.1,2.4-10.7,1.7-15.5-2-5.8-4.4-10.5-12.8-16.8-14.3-9.8-2.3-18.8,13.3-28.6,11.1-3.3-.7-6.3-3.5-9.6-4.4-11.3-3.4-21.1,13.9-32.6,16.1-14.6,2.8-28.9-19.3-42.7-11.3-2.9,1.7-5.4,4.5-8.1,6.9-6.3,5.5-5.7,8.2-12.9,7.8-2.8-.2-6.8,3-9.5,7-3.5,5.8-9.6,24.2-6.5,29.1.2.2,151.2-13.1,225,0Z"/>
  <path class="st3" d="M52.3,63.1c-1.5,15.9-9.6,82.5,28.7,203.4,2.2-104.2,3.5-205.5,3.5-205.5,0,0-30.3,1.9-32.1,2.1Z"/>
</svg>