<?xml version="1.0" encoding="UTF-8"?>
<svg id="Layer_1" xmlns="http://www.w3.org/2000/svg" version="1.1" viewBox="0 0 550.8 549.6">
  <!-- Generator: Adobe Illustrator 29.1.0, SVG Export Plug-In . SVG Version: 2.1.0 Build 142)  -->
  <defs>
    <style>
      .st0, .st1, .st2 {
        stroke: #fff;
        stroke-miterlimit: 10;
        stroke-width: 1px;
      }

      .st0, .st3 {
        fill: #fff;
      }

      .st2 {
        fill: none;
      }

      .st4 {
        opacity: .3;
      }
    </style>
  </defs>
  <g class="st4">
    <g>
      <path class="st2" d="M378,173.9c-31.8-31.8-52-47.1-59.9-50.9-22.7,17.5-39.5,35.9-53.9,55.1-2.6,3.4-5,6.8-7.4,10.3-1.6,2.3-3.2,4.5-4.7,6.9-1.6,2.3-3.1,4.6-4.7,6.9-.7,1.2-1.5,2.4-2.3,3.6-1.8,2.8-3.7,5.7-5.5,8.5-2.6,4.1-5.1,8.1-7.7,12.3-1.7,2.7-3.4,5.4-5.1,8.1-2.4,3.7-4.7,7.5-7.2,11.2-1.9,3-3.9,6-5.9,9-.9,1.4-1.8,2.8-2.8,4.2-.5.7-.9,1.4-1.4,2.1-.5.7-.9,1.4-1.4,2.1-.9,1.4-1.9,2.7-2.9,4.1-1.9,2.7-3.9,5.5-5.9,8.2-1.5,2.1-3.1,4.2-4.8,6.3-.6.8-1.2,1.6-1.8,2.3-2,2.6-4,5.2-6.2,7.8-1.7,2.1-3.5,4.3-5.3,6.4-1.8,2.1-3.6,4.2-5.6,6.3-2.8,3.2-5.7,6.3-8.7,9.4-10,10.3-21.2,20.6-34.1,30.9-15.7,12.5-14.9,16-14.7,17.1,2.6,11.3,3.4,14.7,30.5,41.9s30.5,27,40.7,29.4c3.1.7,12.9-11.6,16.1-15.7,14.1-17.7,28.3-32.4,42.6-44.9,3.3-3,6.6-5.8,10-8.5,2.2-1.9,4.5-3.7,6.7-5.4,2.3-1.8,4.6-3.6,6.9-5.3,17.6-13.1,35.1-24,52.4-34.7,15.1-9.4,29.9-18.6,44.3-29,2.4-1.7,4.7-3.4,7-5.2,2.3-1.7,4.6-3.5,6.8-5.3,3.4-2.7,6.7-5.5,10-8.5,12.2-10.7,24.1-23,35.5-37.9-3.9-7.9-19-28.1-49.6-58.7Z"/>
      <g>
        <path class="st0" d="M251.5,170.2c-2.6,3.4-5.1,6.8-7.5,10.3-1.6,2.3-3.2,4.6-4.7,6.9-1.6,2.3-3.1,4.6-4.6,6.9-19.4,29.3-36.1,59.5-60.9,89.6-1.7,2.1-3.5,4.2-5.4,6.4-1.8,2.1-3.6,4.2-5.5,6.3-2.8,3.1-5.7,6.2-8.8,9.3-9.3,9.5-19.7,18.9-31.5,28.3-15.8,12.5-21.3,20.5-19,30.4,3.5,14.9,6.1,20.7,34.8,49.4s33.3,30.1,48.2,33.6c9.8,2.3,16.9-4.2,29.4-20,14.3-18.1,28.9-32.8,43.5-45.4,3.3-2.9,6.7-5.7,10-8.4,2.3-1.8,4.6-3.6,6.8-5.3h0c2.3-1.8,4.6-3.5,7-5.2,32.6-23.9,65.3-40.6,96.6-63.8,2.4-1.7,4.6-3.5,7-5.3,2.3-1.7,4.5-3.6,6.7-5.4,3.3-2.8,6.6-5.6,9.9-8.5,12.9-11.5,25.4-24.9,37.5-41,6.6-8.8-28.4-48.1-54.2-73.8s-66.3-62.1-75.1-55.5c-25.7,19.2-44.4,39.5-60.1,60.5Z"/>
        <path class="st1" d="M264.2,178c-2.6,3.4-5,6.8-7.4,10.3-1.6,2.3-3.2,4.5-4.7,6.9-1.6,2.3-3.1,4.6-4.7,6.9-.7,1.2-1.5,2.4-2.3,3.6-1.8,2.8-3.7,5.7-5.5,8.5-2.6,4.1-5.1,8.1-7.7,12.3-1.7,2.7-3.4,5.4-5.1,8.1-2.4,3.7-4.7,7.5-7.2,11.2-1.9,3-3.9,6-5.9,9-.9,1.4-1.8,2.8-2.8,4.2-.5.7-.9,1.4-1.4,2.1-.5.7-.9,1.4-1.4,2.1-.9,1.4-1.9,2.7-2.9,4.1-1.9,2.7-3.9,5.5-5.9,8.2-1.5,2.1-3.1,4.2-4.8,6.3-.6.8-1.2,1.6-1.8,2.3-2,2.6-4,5.2-6.2,7.8-1.7,2.1-3.5,4.3-5.3,6.4-1.8,2.1-3.6,4.2-5.6,6.3-2.8,3.2-5.7,6.3-8.7,9.4-10,10.3-21.2,20.6-34.1,30.9-15.7,12.5-14.9,16-14.7,17.1,2.6,11.3,3.4,14.7,30.5,41.9s30.5,27,40.7,29.4c3.1.7,12.9-11.6,16.1-15.7,14.1-17.7,28.3-32.4,42.6-44.9,3.3-3,6.6-5.8,10-8.5,2.2-1.9,4.5-3.7,6.7-5.4,2.3-1.8,4.6-3.6,6.9-5.3,17.6-13.1,35.1-24,52.4-34.7,15.1-9.4,29.9-18.6,44.3-29,2.4-1.7,4.7-3.4,7-5.2,2.3-1.7,4.6-3.5,6.8-5.3,3.4-2.7,6.7-5.5,10-8.5,12.2-10.7,24.1-23,35.5-37.9-3.9-7.9-19-28.1-49.6-58.7-31.8-31.8-52-47.1-59.9-50.9-22.7,17.5-39.5,35.9-53.9,55.1Z"/>
      </g>
    </g>
    <path class="st3" d="M443.1,240c5.3-4.4,13-20.8,6.4-33.2-3.3-7.8,3.7-13.4.2-16.8-1.1-1.1-2.9-1.4-4.5-2-4.4-1.6-7.3-5.3-8-10.3-.8-6,1.4-13.8-1.4-18.4-4.4-7.2-18.9-3.2-23.4-10.4-1.5-2.4-1.7-5.8-3-8.3-4.7-8.7-20.7-4.3-28.7-9.7-10.3-6.9-5.7-28.4-18.5-31.9-2.7-.7-5.9-.5-8.9-.7-7-.5-8.2,1.5-12.2-3-1.5-1.7-5.8-2.3-9.7-1.5-5.5,1.4-20,8.6-21,13.4,0,.2,97,81.5,132.8,132.8Z"/>
    <path class="st3" d="M340.2,138c-10.3,8.5-54.3,43-103.1,137,62.8-60.2,123.3-119.2,123.3-119.2,0,0-19-16.8-20.2-17.7Z"/>
  </g>
</svg>