<?xml version="1.0" encoding="utf-8"?>
<!-- Generator: Adobe Illustrator 26.3.1, SVG Export Plug-In . SVG Version: 6.00 Build 0)  -->
<svg version="1.1" id="Layer_1" xmlns="http://www.w3.org/2000/svg" xmlns:xlink="http://www.w3.org/1999/xlink" x="0px" y="0px"
	 viewBox="0 0 2960.6 677.2" style="enable-background:new 0 0 2960.6 677.2;" xml:space="preserve">
<style type="text/css">
	.st0{fill:#FFFFFF;}
	.st1{fill:#231F20;}
	.st2{fill:none;stroke:#231F20;stroke-width:0.2168;}
	.st3{fill:none;stroke:#231F20;stroke-width:0.2049;}
	.st4{fill:#606161;}
	.st5{fill:#FFFFFF;stroke:#EB2127;stroke-width:0.2168;}
	.st6{fill:#231F20;stroke:#231F20;stroke-width:0.3291;}
	.st7{fill:#231F20;stroke:#231F20;stroke-width:0.1112;}
	.st8{fill:none;stroke:#231F20;stroke-width:0.8673;}
	.st9{fill:#595A5C;}
	.st10{opacity:0.4;}
	.st11{fill:#FDF7BA;}
</style>
<g>
	<g>
		<g>
			<path class="st0" d="M1306.5,440.9c0,27.5-20.6,49.7-46.1,49.7c-25.4,0-46.1-22.3-46.1-49.7c0-27.5,20.6-49.7,46.1-49.7
				C1285.8,391.2,1306.5,413.5,1306.5,440.9z"/>
			<path class="st0" d="M1347,423.7c0,27.5-20.6,49.7-46.1,49.7c-25.4,0-46.1-22.3-46.1-49.7c0-27.5,20.6-49.7,46.1-49.7
				C1326.4,374,1347,396.3,1347,423.7z"/>
			<path class="st0" d="M1360.5,366c0,27.5-20.6,49.7-46,49.7c-25.4,0-46.1-22.3-46.1-49.7c0-27.5,20.6-49.7,46.1-49.7
				C1339.9,316.3,1360.5,338.6,1360.5,366z"/>
			<path class="st0" d="M1414.5,404.1c0,27.5-20.6,49.7-46.1,49.7s-46.1-22.3-46.1-49.7c0-27.5,20.6-49.7,46.1-49.7
				S1414.5,376.6,1414.5,404.1z"/>
			<path class="st0" d="M1408.4,325.5c0,27.5-20.6,49.7-46,49.7c-25.4,0-46.1-22.3-46.1-49.7c0-27.5,20.6-49.7,46.1-49.7
				C1387.8,275.8,1408.4,298,1408.4,325.5z"/>
		</g>
		<g>
			<path class="st0" d="M1167.3,451.4c-8.8,20.5-31.6,30.4-51,22.1c-19.4-8.3-28-31.6-19.2-52.1c8.8-20.5,31.6-30.4,51-22.1
				C1167.5,407.6,1176.1,431,1167.3,451.4z"/>
			<path class="st0" d="M1203.7,451.9c-8.8,20.5-31.6,30.4-51,22.1c-19.4-8.3-28-31.6-19.2-52.1c8.8-20.5,31.6-30.4,51-22.1
				C1203.9,408,1212.5,431.4,1203.7,451.9z"/>
			<path class="st0" d="M1232.4,413.2c-8.8,20.5-31.6,30.4-51,22.1c-19.4-8.3-28-31.6-19.2-52.1c8.8-20.5,31.6-30.4,51-22.1
				C1232.6,369.4,1241.2,392.7,1232.4,413.2z"/>
			<path class="st0" d="M1261.4,459.2c-8.8,20.5-31.6,30.4-51,22.1c-19.4-8.3-28-31.6-19.2-52.1c8.8-20.5,31.6-30.4,51-22.1
				C1261.6,415.4,1270.2,438.7,1261.4,459.2z"/>
			<path class="st0" d="M1281.9,398.6c-8.8,20.5-31.6,30.4-51,22.1c-19.4-8.3-28-31.6-19.2-52.1c8.8-20.5,31.6-30.4,51-22.1
				C1282,354.8,1290.6,378.1,1281.9,398.6z"/>
		</g>
		<g>
			<path class="st0" d="M2041.7,423.6c22.1-3.2,42.4,11.1,45.5,31.9c3,20.9-12.4,40.4-34.4,43.6c-22.1,3.2-42.4-11.1-45.5-31.9
				C2004.2,446.3,2019.6,426.8,2041.7,423.6z"/>
			<path class="st0" d="M2023,392.3c22.1-3.2,42.4,11.1,45.5,31.9c3,20.9-12.4,40.4-34.4,43.6c-22.1,3.2-42.4-11.1-45.5-31.9
				C1985.6,415.1,2001,395.6,2023,392.3z"/>
			<path class="st0" d="M1975.1,388c22.1-3.2,42.4,11.1,45.5,31.9c3,20.9-12.4,40.4-34.4,43.6c-22.1,3.2-42.4-11.1-45.4-31.9
				C1937.6,410.8,1953,391.2,1975.1,388z"/>
			<path class="st0" d="M1999.2,339.3c22.1-3.2,42.4,11.1,45.5,31.9c3,20.8-12.4,40.4-34.4,43.6c-22.1,3.2-42.4-11.1-45.4-31.9
				C1961.7,362,1977.1,342.5,1999.2,339.3z"/>
			<path class="st0" d="M1936.8,353.5c22.1-3.2,42.4,11.1,45.4,31.9c3,20.9-12.4,40.4-34.4,43.6c-22.1,3.2-42.4-11.1-45.5-31.9
				C1899.3,376.2,1914.7,356.7,1936.8,353.5z"/>
		</g>
		<g>
			<path class="st0" d="M1875.6,299c0,35.2-28.5,63.7-63.6,63.7c-35.1,0-63.6-28.5-63.6-63.7s28.5-63.7,63.6-63.7
				C1847.1,235.2,1875.6,263.8,1875.6,299z"/>
			<path class="st0" d="M1896.9,393.1c0,35.2-28.5,63.7-63.6,63.7c-35.1,0-63.6-28.5-63.6-63.7c0-35.2,28.5-63.8,63.6-63.8
				C1868.5,329.3,1896.9,357.9,1896.9,393.1z"/>
			<path class="st0" d="M1984.3,419.3c0,32.6-26.4,59.1-58.9,59.1c-32.5,0-58.9-26.4-58.9-59.1c0-32.6,26.4-59.1,58.9-59.1
				C1957.9,360.3,1984.3,386.7,1984.3,419.3z"/>
			<path class="st0" d="M1936.9,372.3c0,14.5-11.7,26.3-26.2,26.3c-14.5,0-26.2-11.8-26.2-26.3s11.7-26.3,26.2-26.3
				C1925.2,346,1936.9,357.8,1936.9,372.3z"/>
			<path class="st0" d="M1897.6,341.8c0,10.6-8.6,19.2-19.2,19.2c-10.6,0-19.2-8.6-19.2-19.2c0-10.6,8.6-19.2,19.2-19.2
				C1889,322.5,1897.6,331.1,1897.6,341.8z"/>
		</g>
		<g>
			<path class="st0" d="M1461.3,315.1c0,29.5-22.1,53.4-49.4,53.4c-27.3,0-49.4-23.9-49.4-53.4c0-29.5,22.1-53.4,49.4-53.4
				C1439.2,261.7,1461.3,285.6,1461.3,315.1z"/>
			<path class="st0" d="M1675,274.9c0,68.5-51.4,123.9-114.8,123.9c-63.4,0-114.8-55.5-114.8-123.9c0-68.4,51.4-123.9,114.8-123.9
				C1623.6,150.9,1675,206.4,1675,274.9z"/>
			<path class="st0" d="M1835.8,281.1c0,51.2-38.4,92.6-85.8,92.6c-47.4,0-85.8-41.5-85.8-92.6c0-51.1,38.4-92.6,85.8-92.6
				C1797.4,188.5,1835.8,230,1835.8,281.1z"/>
			<path class="st0" d="M1472.8,282.8c0,18.6-13.9,33.6-31.1,33.6c-17.2,0-31.1-15.1-31.1-33.6c0-18.6,13.9-33.6,31.1-33.6
				C1458.9,249.2,1472.8,264.2,1472.8,282.8z"/>
			<path class="st0" d="M1690.3,240.3c0,10.7-8.1,19.5-18,19.5c-10,0-18-8.7-18-19.5c0-10.7,8.1-19.4,18-19.4
				C1682.3,220.8,1690.3,229.5,1690.3,240.3z"/>
			<path class="st0" d="M1858.4,316.4c0,12.4-9.3,22.4-20.8,22.4c-11.5,0-20.7-10-20.7-22.4c0-12.4,9.3-22.4,20.7-22.4
				C1849.1,294,1858.4,304,1858.4,316.4z"/>
		</g>
		<g>
			<path class="st0" d="M1447.6,412.9c0,29.5-22.1,53.4-49.4,53.4c-27.3,0-49.4-23.9-49.4-53.4c0-29.5,22.1-53.4,49.4-53.4
				C1425.5,359.5,1447.6,383.5,1447.6,412.9z"/>
			<path class="st0" d="M1661.3,372.7c0,68.5-51.4,123.9-114.8,123.9c-63.4,0-114.8-55.5-114.8-123.9c0-68.5,51.4-123.9,114.8-123.9
				C1609.9,248.8,1661.3,304.3,1661.3,372.7z"/>
			<path class="st0" d="M1822.2,379c0,51.2-38.4,92.6-85.8,92.6c-47.4,0-85.8-41.5-85.8-92.6c0-51.1,38.4-92.6,85.8-92.6
				C1783.8,286.4,1822.2,327.8,1822.2,379z"/>
			<path class="st0" d="M1459.1,380.6c0,18.6-13.9,33.6-31.1,33.6c-17.2,0-31.1-15-31.1-33.6c0-18.6,13.9-33.6,31.1-33.6
				C1445.2,347,1459.1,362.1,1459.1,380.6z"/>
			<path class="st0" d="M1676.7,338.1c0,10.7-8.1,19.4-18,19.4c-10,0-18-8.7-18-19.4c0-10.7,8.1-19.5,18-19.5
				C1668.6,318.7,1676.7,327.4,1676.7,338.1z"/>
			<path class="st0" d="M1844.8,414.3c0,12.4-9.3,22.4-20.7,22.4c-11.5,0-20.8-10-20.8-22.4c0-12.4,9.3-22.4,20.8-22.4
				C1835.5,391.9,1844.8,401.9,1844.8,414.3z"/>
		</g>
		<g>
			<polygon class="st1" points="307.7,385.4 1151.6,481.1 1149.7,488.5 330.2,415.1 			"/>
			<path class="st2" d="M254.9,374c0,0,90.5-12.4,182.2-70.6c22.6,0.2,19.2,1.2,29.7,1.2C594.4,426,679,426.7,679,426.7
				s62.9,14.2,141.5-56.5c4.4-0.2,10.9-0.9,19.3-1.2c62.3,87.4,103.6,88.8,103.6,88.8s38.2,0.6,65.1-46.8"/>
			<path class="st2" d="M266.1,383.8c0,0,113.6-25.6,199.6-80.2c21.2,0.2-37.3,0-27.4,0c-1.8-1.7,142.9,129.4,197.3,123.8l42.7,2.2
				c0,0,87.5,6.6,161.2-59.7c4.1-0.2-27.5,0.9-19.7,0.6c68.8,80.4,121.3,86.9,121.3,86.9s59.3-1.9,84.6-46.3"/>
			<path class="st2" d="M1025.2,411.9c0,0,25.1,66,53.9,65.1"/>
			<path class="st3" d="M1008.8,411.4c0,0,29.6,65.2,56.1,64.3"/>
			<polygon class="st4" points="668.3,425.3 666.9,515.5 694.3,515.9 692,426.7 			"/>
			<polygon class="st1" points="646.5,424.4 668.3,425.3 666.9,515.5 640,515.5 			"/>
			<path class="st1" d="M799.8,513.7l1.4-3.6l7-0.9l2.3-5.3l3.3-4.9l4.2-129.6h9.3v-2.7h1.9v2.2h10.7l1.9,128.2l3.3,5.3v3.6l0.9,2.7
				l9.3,1.3v4.4L799.8,513.7z M828.2,469.3l-7,6.9l-0.5,3.2l5.6,6.4l7.4-5.5l0.5-3.7L828.2,469.3z M818.9,472l6.5-5.5l-5.6-5.9
				L818.9,472z M836.1,460.6l-5.6,6.4l5.6,5.9V460.6z M827.2,463.8l6.5-6.4l-13-0.5L827.2,463.8z M836.1,443.2v-3.7l-8.4-9.6
				l-8.4,9.1v2.7L836.1,443.2z M819.8,434.5l6-7.8l-6-5.9V434.5z M830.5,427.2l6,7.5l-0.2-14.2L830.5,427.2z M835.1,416.6l-6.5-7.5
				l-7.2,7.5l6.7,8.2L835.1,416.6z M836.3,413.2v-13.3l-5.8,6.2L836.3,413.2z M825.8,405.7l-4.7-5.9l-0.9,13.7L825.8,405.7z
				 M828.4,388.3l-6.7,8l6.3,7.3l6.7-7.8L828.4,388.3z M830.7,386l5.3,6.6l0.2-12.6L830.7,386z M829.1,383.7l4.9-7.5l-11.2,0.2
				L829.1,383.7z M821.2,379.6l0.2,12.8l4.6-6.9L821.2,379.6z M831.9,371.5h-3v2.5h3V371.5z M836.3,371.5h-3v2.5h3V371.5z
				 M827.5,371.5h-3v2.5h3V371.5z M823.1,371.5h-3v2.5h3V371.5z"/>
			<path class="st1" d="M994.1,516.7l1.1-2.6l5.6-0.6l1.9-3.9l2.6-3.6l3.3-94.9h7.4v-2h1.5v1.6h8.5l1.5,94l2.6,3.9v2.6l0.7,1.9
				l7.4,1v3.3L994.1,516.7z M1016.7,484.2l-5.6,5l-0.4,2.3l4.5,4.7l5.9-4l0.4-2.7L1016.7,484.2z M1009.3,486.2l5.2-4l-4.5-4.4
				L1009.3,486.2z M1023,477.8l-4.5,4.7l4.5,4.4V477.8z M1015.9,480.1l5.2-4.7l-10.4-0.3L1015.9,480.1z M1023,465v-2.7l-6.7-7
				l-6.7,6.7v2L1023,465z M1010,458.7l4.8-5.7l-4.8-4.4V458.7z M1018.5,453.3l4.8,5.5l-0.2-10.4L1018.5,453.3z M1022.3,445.6
				l-5.2-5.5l-5.8,5.5l5.4,6L1022.3,445.6z M1023.2,443.1v-9.7l-4.6,4.5L1023.2,443.1z M1014.8,437.6l-3.7-4.4l-0.7,10.1
				L1014.8,437.6z M1016.9,424.8l-5.4,5.9l5,5.4l5.4-5.7L1016.9,424.8z M1018.7,423.1l4.3,4.9l0.2-9.2L1018.7,423.1z M1017.4,421.5
				l3.9-5.5l-8.9,0.2L1017.4,421.5z M1011.1,418.4l0.2,9.4l3.7-5L1011.1,418.4z M1019.7,412.5h-2.4v1.8h2.4V412.5z M1023.2,412.5
				h-2.4v1.8h2.4V412.5z M1016.1,412.5h-2.4v1.8h2.4V412.5z M1012.6,412.5h-2.4v1.8h2.4V412.5z"/>
			<path class="st1" d="M406.2,523.4l2.1-5.5l10.7-1.4l3.6-8.3l5-7.6l6.4-201.3h14.2v-4.1h2.8v3.4h16.3l2.8,199.2l5,8.3v5.5l1.4,4.1
				l14.2,2.1v6.9L406.2,523.4z M449.6,454.4l-10.7,10.7l-0.7,5l8.5,10l11.4-8.5l0.7-5.7L449.6,454.4z M435.4,458.7l9.9-8.5l-8.5-9.2
				L435.4,458.7z M461.7,440.9l-8.5,10l8.5,9.2V440.9z M448.2,445.9l10-10l-19.9-0.7L448.2,445.9z M461.7,413.9v-5.7l-12.8-14.9
				l-12.8,14.2v4.3L461.7,413.9z M436.8,400.4l9.2-12.1l-9.2-9.2V400.4z M453.1,389l9.2,11.7l-0.4-22L453.1,389z M460.2,372.7
				l-10-11.7l-11,11.7l10.3,12.8L460.2,372.7z M462,367.3v-20.6l-8.9,9.6L462,367.3z M446,355.6l-7.1-9.2l-1.4,21.3L446,355.6z
				 M449.9,328.6l-10.3,12.4l9.6,11.4l10.3-12.1L449.9,328.6z M453.5,325.1l8.2,10.3l0.3-19.5L453.5,325.1z M451,321.5l7.5-11.7
				l-17.1,0.4L451,321.5z M438.9,315.1l0.3,19.9l7.1-10.7L438.9,315.1z M455.3,302.5h-4.6v3.9h4.6V302.5z M462,302.5h-4.6v3.9h4.6
				V302.5z M448.5,302.5h-4.6v3.9h4.6V302.5z M441.8,302.5h-4.6v3.9h4.6V302.5z"/>
			<polygon class="st5" points="442.5,448.6 452.7,459.7 442.5,473.7 434.1,459.7 			"/>
			<rect x="659" y="420.8" class="st1" width="21.7" height="5.1"/>
			<path class="st1" d="M89,344l10.3-8.2c12.8,3.8,12.8-1.9,12.8-1.9l6.4,7.6l2.6-5.7l6.4,4.4l7-1.9l4.5,5l14.7,2.5l3.2,3.8l3.2,0.6
				l10.9,6.3l8.3,2.5l1.9,3.8l5.1-0.6l9.6,3.8l3.8-2.5l7,1.3c0,0,8.3-5.7,9-7.6c0.6-1.9,17.3,5.7,20.5,8.8c7-2.5,12.2,3.8,12.2,3.8
				l10.3,8.2l20.5-0.6l5.1,5l5.8,4.4l0.6,4.4l5.1,1.3l5.1-5l7-1.9c0,0,19.2,8.2,22.4,13.2c9,2.5,20.5,5,20.5,5l14.1,8.8l17.9,10.7
				l22.4-0.6l7.7,2.5l23.7,19.5l14.7,10.7l23.1,15.8l5.8,14.5c0,0,1.3,8.8,3.8,10.7c2.6,1.9,6.4,12.6,6.4,12.6l9.3,3.5l14.9,3.7
				l67.8,9.3H91.2L89,344z"/>
			<path class="st1" d="M1238.3,514.7L502,515l-17.7-0.5l53.9-13l29.7-4.6h26l19.5-1.9l12.1-0.9l22.3,2.8l49.3-0.9l23.2-0.9
				c0,0,11.2-9.3,13.9-9.3c2.8,0,26-4.6,28.8-4.6c2.8,0,39,0.9,39,0.9l59.5,6.5l35.3,4.6l20.4-4.6l33.5,5.6l13-7.4l13,5.6l69.7-5.6
				l18.6-11.1l85.5,8.4l18.8,0.7l-0.2-15.6l6.5-5.6v-56.7l0.2-18.8l21.1-0.5l0.2,5.3h3.5v92.5l7.4-3.3l2.8-6.5h4.6l4.6-2.8h7.4
				l4.7,1.9l4.6,2.8l0.9,8.4L1238.3,514.7z"/>
			<polygon class="st1" points="1055.4,488.5 1055.4,484.3 1058.6,483.7 1059.1,476.3 1061.8,472.6 1070.3,468.9 1076.7,471.5 
				1082,466.7 1086.8,467.8 1090,464.1 1090.5,459.3 1092.1,459.3 1094.8,455 1097.9,459.3 1102.2,458.2 1102.2,446 1129.8,442.3 
				1130.3,434.9 1139.4,434.9 1140.4,440.7 1145.8,441.8 1145.8,466.7 1149.5,466.7 1149.5,464.1 1155.8,463.5 1155.3,459.3 
				1169.1,459.3 1169.1,454.5 1182.4,454 1182.9,461.9 1194.1,461.4 1198.9,453.4 1202.1,458.8 1216.4,457.7 1216.4,464.1 
				1225.5,464.1 1224.9,471 1244.1,468.9 1244.1,463.5 1252,464.1 1252.6,459.8 1256.3,459.8 1256.3,455.6 1275.4,454.5 
				1275.9,429.5 1285,427.9 1285,424.2 1304.1,423.2 1304.6,427.4 1314.7,427.4 1315.2,388.6 1328,387.6 1328,384.4 1346.1,383.8 
				1347.1,387 1359.3,388.1 1360.4,473.6 1364.7,474.2 1365.2,414.1 1374.2,413.1 1375.8,410.4 1382.1,410.9 1384.9,399.8 
				1387.9,410.9 1394.4,411.5 1396,413.6 1404.5,415.2 1405.6,446.5 1414.1,445.5 1414.6,447.1 1427.9,446.5 1427.4,404.6 
				1430,404.6 1430,397.1 1458.7,395 1458.7,389.1 1461.4,389.1 1460.3,378.5 1506.5,378 1506.5,388.6 1508.7,388.6 1508.7,405.1 
				1508.7,410.9 1511.3,405.1 1511.3,387 1521.9,384.9 1545.8,386.5 1547.4,405.1 1571.4,404 1571.4,407.2 1588.9,405.1 
				1588.9,410.4 1593.1,410.4 1593.7,416.3 1627.1,415.7 1627.1,406.2 1629.8,405.6 1629.8,402.4 1638.3,400.3 1638.3,389.7 
				1644.7,389.1 1644.7,386 1692,386.5 1692,395 1696.2,396.1 1696.7,414.7 1722.8,415.2 1724.4,411.5 1736.6,410.4 1737.1,414.1 
				1740.3,414.7 1740.8,422.1 1743.5,422.6 1743.5,427.4 1746.2,428.5 1746.7,441.8 1760.5,442.3 1760.5,451.3 1764.8,447.6 
				1769,451.3 1775.9,451.3 1775.4,447.1 1783.4,447.1 1782.8,363.6 1790.8,363.1 1792.4,356.7 1797.2,354.6 1819.5,356.7 
				1820,362.6 1828.5,362.6 1830.6,440.2 1847.6,438.6 1847.6,436.4 1850.8,434.9 1857.2,394.5 1856.1,364.7 1859.8,362.1 
				1862,325.9 1864.1,325.9 1870,363.1 1873.7,364.2 1874.2,390.7 1882.2,445.5 1885.4,445.5 1885.9,408.8 1916.2,407.2 
				1916.2,434.9 1923.6,434.9 1931.6,440.2 1949.1,440.2 1951.8,435.9 1956.6,435.9 1957.6,453.4 1962.4,452.4 1992.7,453.4 
				2024.4,465.7 2051.8,475.8 2063,513 1054.9,514.2 			"/>
			<path class="st1" d="M1723.9,456.5l4.5-130.6l1.4-0.5l1.4-9.1l17.7,0.5l1.1,8.6l0.8,1.1l1.4,129.6L1723.9,456.5z M1738,321.2
				l-1.5-0.7l-1.1,0.7l0.1,4.4h2.5L1738,321.2z M1741.9,325.6l2.9,0.1v-3.9l-1.5-1.7l-1.4,1.7V325.6z M1733.7,348.5h4.1v-11.7
				l-1.4-2.2l-2.6,1.8L1733.7,348.5z M1742.3,348.5l4.4-0.1v-11.7l-2.6-2.2l-1.9,1.9L1742.3,348.5z M1731.2,335.4l-1.1-2.6l-0.8,1.8
				v11.9l2.1,1.5L1731.2,335.4z M1748.4,348.1l1.8-1v-10.4l-0.8-2.6l-1,3V348.1z"/>
			<g>
				<path class="st1" d="M1722.7,373.7c-3,0.1-8.8-2.1-8.8-2.1c-2.1-0.8-4.4-2.3-5-3.3c-0.6-1-1.4,0-2,1.7c-0.6,1.8-1.9,7.2-3.2,8
					s-5.2,1.3-7.4,0.6l-7.7-0.7c-2.3,0.3-3.4,2.1-2.4,4c0.9,1.9,3.7,6,2.8,6c-0.9-0.1-2.4,2-2.1,3.6c0.3,1.6-1,4.2-3,3.6
					c-2-0.6-8.5-6.1-10.8-5.8l-3.3,1c-2.1,0.8-3.8,3.4-3.6,5.7l1.3,12.5c0.7,2.2,0,4.7-1.6,5.7s-6.7,3.3-8,3.5
					c-1.3,0.2-5.4,7.7-6.7,9.6c0,0-7.9,12.1-3.9,17.5c5,6.8,17.5,2.8,25.1,3.5c17.3,1.6,35.5,2.4,54.2,3.3
					c38.2,1.8,111.9,1.7,111.9,1.7c2.3,0,3.2-1.6,2.1-3.6l-2.1-8.5c0.8-2.1,0.5-4.9-0.8-6c-1.3-1.2-7.1-4.1-6.9-5.2
					s-0.2-4.8-1.6-5.9c-1.3-1.1-3.6-4-2.8-4.8c0.9-0.8,1-3.9,0.1-6l-4.2-3.7c-2.1-0.9-3.9-0.7-3.9,0.5c0,1.1-2.2,4.7-4.3,5.5
					l-5.5,1.8c-2.2,0.6-3.9-0.4-3.7-2.1c0.2-1.8-0.6-5.5-2.9-5.4l-8.4,4.4c-1.6,1.7-2.7,1.2-2.6-1.1l-9.3-8c-0.5-2.2-1.2-4.1-1.5-4
					c-0.3,0,1.7-1.3,3.1-3s2.4-4.5,0.2-4.1l-9.3,0c-2.2,0.6-3.6-0.8-3.1-3.1l0-3.4c0.6-2.2-0.6-3.5-2.9-2.9l-8.5,1
					c-2.2,0.6-2.7-0.2-0.9-1.8l3.6-5.6c1.7-1.6,1.2-3.2-1-3.5c-2.2-0.3-7.3-0.5-7.3-1.3c0-0.8-2.4-3.3-4.7-3.7
					c0,0-16.5-3.1-29.6-2.7"/>
			</g>
			<g>
				<path class="st1" d="M2873.9,304c0,0-650.3,129.8-725.1,173.5c0,0-1.4,8-1.4,9.9c163.2-62.5,726.5-135.4,726.5-135.4V304z"/>
				<path class="st6" d="M2500,513.3l5.6-7.5l5.6-2.8l6.6,0.9l9.4-1.9l1.9-10.3l5.6-2.8l-0.9-10.3l1.9-2.8l-0.9-195.6l1.9-3.8
					l-2.8-61.1l1.9-3.8l-1.9-54.5l-1-41.4l4.7-13.2l0.9-9.4l3.8,11.3l35.7,9.4l3.8-9.4l4.7,13.2l1.9,46.1l1.9,50.8l2.8,6.6l1.9,65.8
					l1.9,6.6v67.7l4.7,116.6l5.6,12.2l0.9,5.6l10.3,5.6l7.5,4.7l4.7,7.5H2500z M2545.2,128.7l0.9,29.2l3.8,3.8l27.3,3.8l1-29.2
					l-6.6-6.6L2545.2,128.7z M2547.1,182.3l0.9,31l5.6,4.7l20.7,2.8l2.8-6.6v-26.3l-7.5-3.8L2547.1,182.3z M2552.7,240.6l-3.8,9.4
					l1.9,36.7l28.2,2.8l-0.9-40.4l-4.7-5.6L2552.7,240.6z M2555.5,314.9l-3.8,8.5l0.9,48l28.2-2.8v-45.1l-6.6-9.4L2555.5,314.9z
					 M2554.6,400.4v13.2l7.5-9.4L2554.6,400.4z M2571.5,404.2l7.5,8.5v-16L2571.5,404.2z M2567.7,409.8l-10.4,13.2l19.8,0.9
					L2567.7,409.8z M2569.6,444.6l6.6-14.1h-17.9L2569.6,444.6z M2554.6,438.1l-0.9,22.6l9.4-10.3L2554.6,438.1z"/>
				<path class="st7" d="M2157.7,514.2l1.9-2.5l1.9-1l2.2,0.3l3.2-0.6l0.6-3.5l1.9-1l-0.3-3.5l0.6-1l-0.3-66.1l0.7-1.3l-1-20.7
					l0.6-1.3l-0.6-18.4l-0.3-14l1.6-4.4l0.3-3.2l1.3,3.8l12.1,3.2l1.3-3.2l1.6,4.4l0.6,15.6l0.6,17.2l0.9,2.2l0.6,22.3l0.6,2.2v22.9
					l1.6,39.4l1.9,4.1l0.3,1.9l3.5,1.9l2.5,1.6l1.6,2.5H2157.7z M2173,384.2l0.3,9.9l1.3,1.3l9.2,1.3l0.3-9.9l-2.2-2.2L2173,384.2z
					 M2173.6,402.3l0.3,10.5l1.9,1.6l7,1l1-2.2v-8.9l-2.5-1.3L2173.6,402.3z M2175.5,422l-1.3,3.2l0.6,12.4l9.5,0.9l-0.3-13.7
					l-1.6-1.9L2175.5,422z M2176.5,447.1l-1.3,2.9l0.3,16.2l9.5-1V450l-2.2-3.2L2176.5,447.1z M2176.1,476.1v4.5l2.6-3.2
					L2176.1,476.1z M2181.9,477.3l2.5,2.9v-5.4L2181.9,477.3z M2180.6,479.3l-3.5,4.5l6.7,0.3L2180.6,479.3z M2181.2,491l2.2-4.8h-6
					L2181.2,491z M2176.1,488.8l-0.3,7.6l3.2-3.5L2176.1,488.8z"/>
				<path class="st8" d="M2172,375.9c0,0-9.2,93.2,103.8,59.4c110-27.3,300.7-320,305.5-320.9c183.4,74.4,292.6,71.9,292.6,71.9"/>
				<path class="st8" d="M2537.6,102.3c0,0-159.6,300.5-268.3,335c-68.4,4.2-85.3-58.3-85.3-58.3"/>
				<path class="st8" d="M2586.8,119.2c24,14.1,287.1,67,287.1,67"/>
				<line class="st8" x1="2171.4" y1="378.8" x2="2142.4" y2="482.4"/>
				<line class="st8" x1="2171.7" y1="441.5" x2="2158.7" y2="476.8"/>
				<path class="st7" d="M2258.8,513.5l-7.8-4.2l-7.1-0.7l-4.9-5.6l-9.2-0.7l-10.6-3.5H2208l-7.8-1.4l-9.2-2.1
					c0,0-21.2-5.6-23.3-6.3c-2.1-0.7-9.9-4.2-9.9-4.2l-4.9,0.7l-4.2-5.6l-8.5-2.1l-7.8-0.7l-7.8-0.7h-7.8l-9.9-2.1l-7.1,2.8
					l-13.4-3.5h-14.1l-11.3,0.7l-14.1-1.4l-9.9,0.7l-14.1-2.1l-10.6,2.1l-12.7-2.1l-10.6,2.8l-16.2-0.7V510l184.6,4.2L2258.8,513.5z
					"/>
			</g>
			<path class="st1" d="M2430.3,510.5l5.5-16.2l8.2-1.6h6.8l8.2-3.2l4.1,9.7h19.1l9.6-8.1l10.9,3.2l4.1-8.1l4.1,11.3l10.9,1.6
				l9.6,6.5h15c0,0,13.7,1.6,13.7-3.2c0-4.8,6.8-30.7,6.8-30.7l2.7-22.6l8.2-9.7l9.6-16.1l5.5-21v-16.2l8.2-12.9
				c0,0,9.5-3.2,13.7-3.2c4.1,0,16.4-1.6,16.4-1.6l20.5-1.6l30.1-6.5l15-1.6l20.5-4.8l93.9-69.4l18.2-11.9c0,0,7.3-9.7,10-9.7
				c2.7,0,11.8-3.2,11.8-3.2s5.5-8.6,8.2-9.7c2.7-1.1,10.9-1.1,10.9-1.1l4.1-4.3v269.5l-444.3,0.8V510.5z"/>
			<g>
				<path class="st9" d="M2039.7,444.1c0,0,3.9-5.7,13.7-6c9.8-0.3,14.1,5.6,14.1,5.6l-13.9-2L2039.7,444.1z"/>
				<path class="st1" d="M2079.8,480.8l-50.9-0.7v-1.9l0.2-16.4l-1-1l-0.4-1.5h1.5l0.5-5.6l-0.6-1.3h2.3l0.8-1.6l0.1-1.9l4.3-2.7
					c0,0,5.7-5.3,17.6-4.9c13.1,0.1,16.1,3.8,16.1,3.8l4.2,1.9l0.9,0.8l-0.7,0.8v0.9l1.6,2l2.2-0.1l-0.5,1.4l0.5,5.4h1.5l-0.2,1.6
					l-1,0.9l0.2,0.7l-0.2,0.7l0.7,0.2l-0.6,1.9l0.6,10.2L2079.8,480.8z M2069.8,478.6l-0.7-13.1c0,0-1.6-5.4-6.1-5.9
					c-3.1-0.6-5.7,4.6-5.7,4.6l0.4,13.6L2069.8,478.6z M2049.8,478.7l-0.1-15c0,0-1.5-3.8-5.8-3.8c-3.1-0.1-5.6,6.3-5.6,6.3
					l-0.4,12.5H2049.8z"/>
			</g>
		</g>
	</g>
	<path class="st1" d="M1244.2,428.2c0,0-1.6-62.6-0.4-82.2c1.5-24.3,4.5-52.7,7.8-55.3c3.4-2.6,19.4-3.4,22.4,0
		c3,3.4,9,38.9,8.6,55.7c0,9,0.4,43,0.4,43h9v33.8v50.3l-46.3,0.9L1244.2,428.2z"/>
	<g class="st10">
		<rect x="1324.3" y="395" class="st11" width="3" height="13"/>
		<rect x="1330.4" y="395" class="st11" width="3" height="13"/>
		<rect x="1324.3" y="411.7" class="st11" width="3" height="13"/>
		<rect x="1330.4" y="411.7" class="st11" width="3" height="13"/>
		<rect x="1330.4" y="428.2" class="st11" width="3" height="13"/>
		<rect x="1324.3" y="444.1" class="st11" width="3" height="13"/>
		<rect x="1330.4" y="444.1" class="st11" width="3" height="13"/>
		<rect x="1318.6" y="460.1" class="st11" width="3" height="13"/>
		<rect x="1324.3" y="460.1" class="st11" width="3" height="13"/>
		<rect x="1330.4" y="460.1" class="st11" width="3" height="13"/>
		<g>
			<rect x="1318.6" y="395" class="st11" width="3" height="13"/>
			<rect x="1318.6" y="411.7" class="st11" width="3" height="13"/>
			<rect x="1318.6" y="428.2" class="st11" width="3" height="13"/>
			<rect x="1324.3" y="428.2" class="st11" width="3" height="13"/>
			<rect x="1318.6" y="444.1" class="st11" width="3" height="13"/>
			<g>
				<rect x="1368.9" y="417.8" class="st11" width="3.6" height="9.2"/>
				<rect x="1375.9" y="417.8" class="st11" width="3.6" height="9.2"/>
				<rect x="1383.2" y="417.8" class="st11" width="3.6" height="9.2"/>
				<rect x="1368.9" y="429.8" class="st11" width="3.6" height="9.2"/>
				<rect x="1375.9" y="429.8" class="st11" width="3.6" height="9.2"/>
				<rect x="1383.2" y="429.8" class="st11" width="3.6" height="9.2"/>
				<rect x="1368.9" y="441.5" class="st11" width="3.6" height="9.2"/>
				<rect x="1375.9" y="441.5" class="st11" width="3.6" height="9.2"/>
				<rect x="1383.2" y="441.5" class="st11" width="3.6" height="9.2"/>
				<rect x="1368.9" y="452.8" class="st11" width="3.6" height="9.2"/>
				<rect x="1375.9" y="452.8" class="st11" width="3.6" height="9.2"/>
				<rect x="1383.2" y="452.8" class="st11" width="3.6" height="9.2"/>
				<rect x="1368.9" y="464.2" class="st11" width="3.6" height="9.2"/>
				<rect x="1375.9" y="464.2" class="st11" width="3.6" height="9.2"/>
				<rect x="1383.2" y="464.2" class="st11" width="3.6" height="9.2"/>
			</g>
			<g>
				<rect x="1406.8" y="453.6" class="st11" width="3.6" height="9.2"/>
				<rect x="1413.7" y="453.6" class="st11" width="3.6" height="9.2"/>
				<rect x="1421.1" y="453.6" class="st11" width="3.6" height="9.2"/>
				<rect x="1406.8" y="465.5" class="st11" width="3.6" height="9.2"/>
				<rect x="1413.7" y="465.5" class="st11" width="3.6" height="9.2"/>
				<rect x="1421.1" y="465.5" class="st11" width="3.6" height="9.2"/>
				<rect x="1406.8" y="477.2" class="st11" width="3.6" height="9.2"/>
				<rect x="1413.7" y="477.2" class="st11" width="3.6" height="9.2"/>
				<rect x="1421.1" y="477.2" class="st11" width="3.6" height="9.2"/>
			</g>
			<g>
				<rect x="1519" y="391.3" class="st11" width="3.6" height="9.2"/>
				<rect x="1525.9" y="391.3" class="st11" width="3.6" height="9.2"/>
				<rect x="1533.3" y="391.3" class="st11" width="3.6" height="9.2"/>
				<rect x="1519" y="403.2" class="st11" width="3.6" height="9.2"/>
				<rect x="1525.9" y="403.2" class="st11" width="3.6" height="9.2"/>
				<rect x="1533.3" y="403.2" class="st11" width="3.6" height="9.2"/>
				<rect x="1519" y="414.9" class="st11" width="3.6" height="9.2"/>
				<rect x="1525.9" y="414.9" class="st11" width="3.6" height="9.2"/>
				<rect x="1533.3" y="414.9" class="st11" width="3.6" height="9.2"/>
			</g>
			<g>
				<rect x="1519" y="426.3" class="st11" width="3.6" height="9.2"/>
				<rect x="1525.9" y="426.3" class="st11" width="3.6" height="9.2"/>
				<rect x="1533.3" y="426.3" class="st11" width="3.6" height="9.2"/>
				<rect x="1519" y="438.3" class="st11" width="3.6" height="9.2"/>
				<rect x="1525.9" y="438.3" class="st11" width="3.6" height="9.2"/>
				<rect x="1533.3" y="438.3" class="st11" width="3.6" height="9.2"/>
				<rect x="1519" y="450" class="st11" width="3.6" height="9.2"/>
				<rect x="1525.9" y="450" class="st11" width="3.6" height="9.2"/>
				<rect x="1533.3" y="450" class="st11" width="3.6" height="9.2"/>
			</g>
			<g>
				<rect x="1549.7" y="410.6" class="st11" width="3.6" height="9.2"/>
				<rect x="1556.6" y="410.6" class="st11" width="3.6" height="9.2"/>
				<rect x="1564" y="410.6" class="st11" width="3.6" height="9.2"/>
				<rect x="1549.7" y="422.5" class="st11" width="3.6" height="9.2"/>
				<rect x="1556.6" y="422.5" class="st11" width="3.6" height="9.2"/>
				<rect x="1564" y="422.5" class="st11" width="3.6" height="9.2"/>
				<rect x="1549.7" y="434.2" class="st11" width="3.6" height="9.2"/>
				<rect x="1556.6" y="434.2" class="st11" width="3.6" height="9.2"/>
				<rect x="1564" y="434.2" class="st11" width="3.6" height="9.2"/>
			</g>
			<g>
				<rect x="1796" y="363.4" class="st11" width="3.6" height="9.2"/>
				<rect x="1802.9" y="363.4" class="st11" width="3.6" height="9.2"/>
				<rect x="1810.3" y="363.4" class="st11" width="3.6" height="9.2"/>
				<rect x="1796" y="375.4" class="st11" width="3.6" height="9.2"/>
				<rect x="1802.9" y="375.4" class="st11" width="3.6" height="9.2"/>
				<rect x="1810.3" y="375.4" class="st11" width="3.6" height="9.2"/>
				<rect x="1796" y="387.1" class="st11" width="3.6" height="9.2"/>
				<rect x="1802.9" y="387.1" class="st11" width="3.6" height="9.2"/>
				<rect x="1810.3" y="387.1" class="st11" width="3.6" height="9.2"/>
			</g>
			<g>
				<rect x="1892.4" y="415.4" class="st11" width="3.6" height="9.2"/>
				<rect x="1899.4" y="415.4" class="st11" width="3.6" height="9.2"/>
				<rect x="1906.7" y="415.4" class="st11" width="3.6" height="9.2"/>
				<rect x="1892.4" y="427.4" class="st11" width="3.6" height="9.2"/>
				<rect x="1899.4" y="427.4" class="st11" width="3.6" height="9.2"/>
				<rect x="1906.7" y="427.4" class="st11" width="3.6" height="9.2"/>
				<rect x="1892.4" y="439" class="st11" width="3.6" height="9.2"/>
				<rect x="1899.4" y="439" class="st11" width="3.6" height="9.2"/>
				<rect x="1906.7" y="439" class="st11" width="3.6" height="9.2"/>
			</g>
			<g>
				<rect x="1796" y="399.9" class="st11" width="3.6" height="9.2"/>
				<rect x="1802.9" y="399.9" class="st11" width="3.6" height="9.2"/>
				<rect x="1810.3" y="399.9" class="st11" width="3.6" height="9.2"/>
				<rect x="1796" y="411.8" class="st11" width="3.6" height="9.2"/>
				<rect x="1802.9" y="411.8" class="st11" width="3.6" height="9.2"/>
				<rect x="1810.3" y="411.8" class="st11" width="3.6" height="9.2"/>
				<rect x="1796" y="423.5" class="st11" width="3.6" height="9.2"/>
				<rect x="1802.9" y="423.5" class="st11" width="3.6" height="9.2"/>
				<rect x="1810.3" y="423.5" class="st11" width="3.6" height="9.2"/>
			</g>
			<g>
				<rect x="1859.9" y="367.1" class="st11" width="3.6" height="6.6"/>
				<rect x="1866.8" y="367.1" class="st11" width="3.6" height="6.6"/>
				<rect x="1859.9" y="375.7" class="st11" width="3.6" height="6.6"/>
				<rect x="1866.8" y="375.7" class="st11" width="3.6" height="6.6"/>
				<rect x="1859.9" y="384.1" class="st11" width="3.6" height="6.6"/>
				<rect x="1866.8" y="384.1" class="st11" width="3.6" height="6.6"/>
			</g>
			<g>
				<rect x="1859.9" y="394.2" class="st11" width="3.6" height="6.6"/>
				<rect x="1866.8" y="394.2" class="st11" width="3.6" height="6.6"/>
				<rect x="1859.9" y="402.8" class="st11" width="3.6" height="6.6"/>
				<rect x="1866.8" y="402.8" class="st11" width="3.6" height="6.6"/>
				<rect x="1859.9" y="411.2" class="st11" width="3.6" height="6.6"/>
				<rect x="1866.8" y="411.2" class="st11" width="3.6" height="6.6"/>
			</g>
			<g>
				
					<rect x="1928.6" y="449.1" transform="matrix(6.123234e-17 -1 1 6.123234e-17 1478.0394 2382.8594)" class="st11" width="3.6" height="6.6"/>
				
					<rect x="1928.6" y="442.2" transform="matrix(6.123234e-17 -1 1 6.123234e-17 1484.9747 2375.9241)" class="st11" width="3.6" height="6.6"/>
				
					<rect x="1937.2" y="449.1" transform="matrix(6.123234e-17 -1 1 6.123234e-17 1486.6318 2391.4517)" class="st11" width="3.6" height="6.6"/>
				
					<rect x="1937.2" y="442.2" transform="matrix(6.123234e-17 -1 1 6.123234e-17 1493.567 2384.5164)" class="st11" width="3.6" height="6.6"/>
				
					<rect x="1945.6" y="449.1" transform="matrix(6.123234e-17 -1 1 6.123234e-17 1495.0413 2399.8611)" class="st11" width="3.6" height="6.6"/>
				
					<rect x="1945.6" y="442.2" transform="matrix(6.123234e-17 -1 1 6.123234e-17 1501.9766 2392.9258)" class="st11" width="3.6" height="6.6"/>
			</g>
			<g>
				<rect x="1653.1" y="390.4" class="st11" width="5.4" height="6.6"/>
				<rect x="1663.4" y="390.4" class="st11" width="5.4" height="6.6"/>
				<rect x="1674.4" y="390.4" class="st11" width="5.4" height="6.6"/>
				<rect x="1653.1" y="399" class="st11" width="5.4" height="6.6"/>
				<rect x="1663.4" y="399" class="st11" width="5.4" height="6.6"/>
				<rect x="1674.4" y="399" class="st11" width="5.4" height="6.6"/>
				<rect x="1653.1" y="407.4" class="st11" width="5.4" height="6.6"/>
				<rect x="1663.4" y="407.4" class="st11" width="5.4" height="6.6"/>
				<rect x="1674.4" y="407.4" class="st11" width="5.4" height="6.6"/>
			</g>
			<g>
				<rect x="1653.1" y="417.2" class="st11" width="5.4" height="6.6"/>
				<rect x="1663.4" y="417.2" class="st11" width="5.4" height="6.6"/>
				<rect x="1674.4" y="417.2" class="st11" width="5.4" height="6.6"/>
				<rect x="1653.1" y="425.8" class="st11" width="5.4" height="6.6"/>
				<rect x="1663.4" y="425.8" class="st11" width="5.4" height="6.6"/>
				<rect x="1674.4" y="425.8" class="st11" width="5.4" height="6.6"/>
				<rect x="1653.1" y="434.2" class="st11" width="5.4" height="6.6"/>
				<rect x="1663.4" y="434.2" class="st11" width="5.4" height="6.6"/>
				<rect x="1674.4" y="434.2" class="st11" width="5.4" height="6.6"/>
			</g>
			<g>
				<rect x="1602" y="421" class="st11" width="3.6" height="6.6"/>
				<rect x="1609" y="421" class="st11" width="3.6" height="6.6"/>
				<rect x="1616.3" y="421" class="st11" width="3.6" height="6.6"/>
				<rect x="1602" y="429.6" class="st11" width="3.6" height="6.6"/>
				<rect x="1609" y="429.6" class="st11" width="3.6" height="6.6"/>
				<rect x="1616.3" y="429.6" class="st11" width="3.6" height="6.6"/>
				<rect x="1602" y="438" class="st11" width="3.6" height="6.6"/>
				<rect x="1609" y="438" class="st11" width="3.6" height="6.6"/>
				<rect x="1616.3" y="438" class="st11" width="3.6" height="6.6"/>
			</g>
			<g>
				<rect x="1624.2" y="420.2" class="st11" width="3.6" height="6.6"/>
				<rect x="1631.1" y="420.2" class="st11" width="3.6" height="6.6"/>
				<rect x="1638.5" y="420.2" class="st11" width="3.6" height="6.6"/>
				<rect x="1624.2" y="428.8" class="st11" width="3.6" height="6.6"/>
				<rect x="1631.1" y="428.8" class="st11" width="3.6" height="6.6"/>
				<rect x="1638.5" y="428.8" class="st11" width="3.6" height="6.6"/>
				<rect x="1624.2" y="437.2" class="st11" width="3.6" height="6.6"/>
				<rect x="1631.1" y="437.2" class="st11" width="3.6" height="6.6"/>
				<rect x="1638.5" y="437.2" class="st11" width="3.6" height="6.6"/>
			</g>
			<g>
				<rect x="1575.5" y="421.8" class="st11" width="3.6" height="6.6"/>
				<rect x="1582.4" y="421.8" class="st11" width="3.6" height="6.6"/>
				<rect x="1589.8" y="421.8" class="st11" width="3.6" height="6.6"/>
				<rect x="1575.5" y="430.4" class="st11" width="3.6" height="6.6"/>
				<rect x="1582.4" y="430.4" class="st11" width="3.6" height="6.6"/>
				<rect x="1589.8" y="430.4" class="st11" width="3.6" height="6.6"/>
				<rect x="1575.5" y="438.8" class="st11" width="3.6" height="6.6"/>
				<rect x="1582.4" y="438.8" class="st11" width="3.6" height="6.6"/>
				<rect x="1589.8" y="438.8" class="st11" width="3.6" height="6.6"/>
			</g>
			<g>
				<rect x="1576" y="448" class="st11" width="3.6" height="6.6"/>
				<rect x="1582.9" y="448" class="st11" width="3.6" height="6.6"/>
				<rect x="1590.3" y="448" class="st11" width="3.6" height="6.6"/>
				<rect x="1576" y="456.6" class="st11" width="3.6" height="6.6"/>
				<rect x="1582.9" y="456.6" class="st11" width="3.6" height="6.6"/>
				<rect x="1590.3" y="456.6" class="st11" width="3.6" height="6.6"/>
				<rect x="1576" y="465" class="st11" width="3.6" height="6.6"/>
				<rect x="1582.9" y="465" class="st11" width="3.6" height="6.6"/>
				<rect x="1590.3" y="465" class="st11" width="3.6" height="6.6"/>
			</g>
			<g>
				
					<rect x="1433.5" y="405.5" transform="matrix(1 -5.434258e-03 5.434258e-03 1 -2.2072 7.8104)" class="st11" width="5.3" height="9.2"/>
				
					<rect x="1443.6" y="405.4" transform="matrix(1 -5.434258e-03 5.434258e-03 1 -2.2067 7.8653)" class="st11" width="5.3" height="9.2"/>
				
					<rect x="1454.3" y="405.3" transform="matrix(1 -5.434258e-03 5.434258e-03 1 -2.2062 7.9236)" class="st11" width="5.3" height="9.2"/>
				
					<rect x="1433.6" y="417.4" transform="matrix(1 -5.434258e-03 5.434258e-03 1 -2.272 7.8109)" class="st11" width="5.3" height="9.2"/>
				
					<rect x="1443.7" y="417.3" transform="matrix(1 -5.434258e-03 5.434258e-03 1 -2.2716 7.8658)" class="st11" width="5.3" height="9.2"/>
				
					<rect x="1454.4" y="417.3" transform="matrix(1 -5.434258e-03 5.434258e-03 1 -2.2711 7.9241)" class="st11" width="5.3" height="9.2"/>
				
					<rect x="1433.6" y="429.1" transform="matrix(1 -5.434258e-03 5.434258e-03 1 -2.3356 7.8114)" class="st11" width="5.3" height="9.2"/>
				
					<rect x="1443.7" y="429" transform="matrix(1 -5.434258e-03 5.434258e-03 1 -2.3351 7.8663)" class="st11" width="5.3" height="9.2"/>
				
					<rect x="1454.5" y="429" transform="matrix(1 -5.434258e-03 5.434258e-03 1 -2.3346 7.9246)" class="st11" width="5.3" height="9.2"/>
				
					<rect x="1433.7" y="440.4" transform="matrix(1 -5.434258e-03 5.434258e-03 1 -2.397 7.8119)" class="st11" width="5.3" height="9.2"/>
				
					<rect x="1443.8" y="440.3" transform="matrix(1 -5.434258e-03 5.434258e-03 1 -2.3966 7.8668)" class="st11" width="5.3" height="9.2"/>
				
					<rect x="1454.5" y="440.3" transform="matrix(1 -5.434258e-03 5.434258e-03 1 -2.3961 7.9251)" class="st11" width="5.3" height="9.2"/>
				
					<rect x="1433.7" y="451.8" transform="matrix(1 -5.434258e-03 5.434258e-03 1 -2.4591 7.8124)" class="st11" width="5.3" height="9.2"/>
				
					<rect x="1443.8" y="451.8" transform="matrix(1 -5.434258e-03 5.434258e-03 1 -2.4587 7.8673)" class="st11" width="5.3" height="9.2"/>
				
					<rect x="1454.6" y="451.7" transform="matrix(1 -5.434258e-03 5.434258e-03 1 -2.4582 7.9256)" class="st11" width="5.3" height="9.2"/>
			</g>
			<g>
				
					<rect x="1469.6" y="386.7" transform="matrix(1 -5.434341e-03 5.434341e-03 1 -2.1047 8.0034)" class="st11" width="4.1" height="9.2"/>
				
					<rect x="1477.4" y="386.7" transform="matrix(1 -5.434341e-03 5.434341e-03 1 -2.1044 8.0458)" class="st11" width="4.1" height="9.2"/>
				
					<rect x="1485.8" y="386.6" transform="matrix(1 -5.434341e-03 5.434341e-03 1 -2.104 8.091)" class="st11" width="4.1" height="9.2"/>
				
					<rect x="1469.7" y="398.6" transform="matrix(1 -5.434341e-03 5.434341e-03 1 -2.1696 8.0039)" class="st11" width="4.1" height="9.2"/>
				
					<rect x="1477.5" y="398.6" transform="matrix(1 -5.434341e-03 5.434341e-03 1 -2.1693 8.0464)" class="st11" width="4.1" height="9.2"/>
				
					<rect x="1485.8" y="398.6" transform="matrix(1 -5.434341e-03 5.434341e-03 1 -2.1689 8.0915)" class="st11" width="4.1" height="9.2"/>
				
					<rect x="1469.8" y="410.3" transform="matrix(1 -5.434341e-03 5.434341e-03 1 -2.2332 8.0044)" class="st11" width="4.1" height="9.2"/>
				
					<rect x="1477.6" y="410.3" transform="matrix(1 -5.434341e-03 5.434341e-03 1 -2.2328 8.0469)" class="st11" width="4.1" height="9.2"/>
				
					<rect x="1485.9" y="410.2" transform="matrix(1 -5.434341e-03 5.434341e-03 1 -2.2324 8.092)" class="st11" width="4.1" height="9.2"/>
				
					<rect x="1469.8" y="421.6" transform="matrix(1 -5.434341e-03 5.434341e-03 1 -2.2946 8.0049)" class="st11" width="4.1" height="9.2"/>
				
					<rect x="1477.6" y="421.6" transform="matrix(1 -5.434341e-03 5.434341e-03 1 -2.2943 8.0474)" class="st11" width="4.1" height="9.2"/>
				
					<rect x="1485.9" y="421.5" transform="matrix(1 -5.434341e-03 5.434341e-03 1 -2.2939 8.0925)" class="st11" width="4.1" height="9.2"/>
				
					<rect x="1469.9" y="433.1" transform="matrix(1 -5.434341e-03 5.434341e-03 1 -2.3567 8.0054)" class="st11" width="4.1" height="9.2"/>
				
					<rect x="1477.7" y="433" transform="matrix(1 -5.434341e-03 5.434341e-03 1 -2.3564 8.0479)" class="st11" width="4.1" height="9.2"/>
				
					<rect x="1486" y="433" transform="matrix(1 -5.434341e-03 5.434341e-03 1 -2.356 8.093)" class="st11" width="4.1" height="9.2"/>
			</g>
			<g>
				
					<rect x="1470.6" y="445.5" transform="matrix(1 -5.434341e-03 5.434341e-03 1 -2.4242 8.0095)" class="st11" width="4.1" height="9.2"/>
				
					<rect x="1478.4" y="445.4" transform="matrix(1 -5.434341e-03 5.434341e-03 1 -2.4238 8.052)" class="st11" width="4.1" height="9.2"/>
				
					<rect x="1486.7" y="445.4" transform="matrix(1 -5.434341e-03 5.434341e-03 1 -2.4235 8.0971)" class="st11" width="4.1" height="9.2"/>
				
					<rect x="1470.7" y="457.4" transform="matrix(1 -5.434341e-03 5.434341e-03 1 -2.4891 8.0101)" class="st11" width="4.1" height="9.2"/>
				
					<rect x="1478.5" y="457.4" transform="matrix(1 -5.434341e-03 5.434341e-03 1 -2.4887 8.0525)" class="st11" width="4.1" height="9.2"/>
				
					<rect x="1486.8" y="457.3" transform="matrix(1 -5.434341e-03 5.434341e-03 1 -2.4884 8.0977)" class="st11" width="4.1" height="9.2"/>
				
					<rect x="1470.7" y="469.1" transform="matrix(1 -5.434341e-03 5.434341e-03 1 -2.5526 8.0106)" class="st11" width="4.1" height="9.2"/>
				
					<rect x="1478.5" y="469.1" transform="matrix(1 -5.434341e-03 5.434341e-03 1 -2.5523 8.053)" class="st11" width="4.1" height="9.2"/>
				
					<rect x="1486.9" y="469" transform="matrix(1 -5.434341e-03 5.434341e-03 1 -2.5519 8.0982)" class="st11" width="4.1" height="9.2"/>
			</g>
			<g>
				<rect x="1253.8" y="298.5" class="st11" width="3.6" height="9.2"/>
				<rect x="1260.8" y="298.5" class="st11" width="3.6" height="9.2"/>
				<rect x="1253.8" y="310.5" class="st11" width="3.6" height="9.2"/>
				<rect x="1260.8" y="310.5" class="st11" width="3.6" height="9.2"/>
				<rect x="1253.8" y="322.2" class="st11" width="3.6" height="9.2"/>
				<rect x="1260.8" y="322.2" class="st11" width="3.6" height="9.2"/>
				<rect x="1253.8" y="333.5" class="st11" width="3.6" height="9.2"/>
				<rect x="1260.8" y="333.5" class="st11" width="3.6" height="9.2"/>
				<rect x="1253.8" y="344.9" class="st11" width="3.6" height="9.2"/>
				<rect x="1260.8" y="344.9" class="st11" width="3.6" height="9.2"/>
			</g>
			<g>
				<rect x="1253.8" y="357.2" class="st11" width="3.6" height="9.2"/>
				<rect x="1260.8" y="357.2" class="st11" width="3.6" height="9.2"/>
				<rect x="1253.8" y="369.1" class="st11" width="3.6" height="9.2"/>
				<rect x="1260.8" y="369.1" class="st11" width="3.6" height="9.2"/>
				<rect x="1253.8" y="380.8" class="st11" width="3.6" height="9.2"/>
				<rect x="1260.8" y="380.8" class="st11" width="3.6" height="9.2"/>
				<rect x="1253.8" y="392.1" class="st11" width="3.6" height="9.2"/>
				<rect x="1260.8" y="392.1" class="st11" width="3.6" height="9.2"/>
				<rect x="1253.8" y="403.5" class="st11" width="3.6" height="9.2"/>
				<rect x="1260.8" y="403.5" class="st11" width="3.6" height="9.2"/>
			</g>
			<g>
				<rect x="1253.8" y="417.7" class="st11" width="3.6" height="9.2"/>
				<rect x="1260.8" y="417.7" class="st11" width="3.6" height="9.2"/>
				<rect x="1253.8" y="429.6" class="st11" width="3.6" height="9.2"/>
				<rect x="1260.8" y="429.6" class="st11" width="3.6" height="9.2"/>
				<rect x="1253.8" y="441.3" class="st11" width="3.6" height="9.2"/>
				<rect x="1260.8" y="441.3" class="st11" width="3.6" height="9.2"/>
				<rect x="1253.8" y="452.6" class="st11" width="3.6" height="9.2"/>
				<rect x="1260.8" y="452.6" class="st11" width="3.6" height="9.2"/>
				<rect x="1253.8" y="464.1" class="st11" width="3.6" height="9.2"/>
				<rect x="1260.8" y="464.1" class="st11" width="3.6" height="9.2"/>
			</g>
			<g>
				<rect x="1292.6" y="427.4" class="st11" width="3.6" height="6.6"/>
				<rect x="1299.5" y="427.4" class="st11" width="3.6" height="6.6"/>
				<rect x="1292.6" y="435.9" class="st11" width="3.6" height="6.6"/>
				<rect x="1299.5" y="435.9" class="st11" width="3.6" height="6.6"/>
				<rect x="1292.6" y="444.2" class="st11" width="3.6" height="6.6"/>
				<rect x="1299.5" y="444.2" class="st11" width="3.6" height="6.6"/>
				<rect x="1292.6" y="452.2" class="st11" width="3.6" height="6.6"/>
				<rect x="1299.5" y="452.2" class="st11" width="3.6" height="6.6"/>
				<rect x="1292.6" y="460.3" class="st11" width="3.6" height="6.6"/>
				<rect x="1299.5" y="460.3" class="st11" width="3.6" height="6.6"/>
			</g>
			<g>
				<rect x="1105.4" y="447.9" class="st11" width="3.6" height="5.2"/>
				<rect x="1112.3" y="447.9" class="st11" width="3.6" height="5.2"/>
				<rect x="1105.4" y="454.7" class="st11" width="3.6" height="5.2"/>
				<rect x="1112.3" y="454.7" class="st11" width="3.6" height="5.2"/>
				<rect x="1105.4" y="461.3" class="st11" width="3.6" height="5.2"/>
				<rect x="1112.3" y="461.3" class="st11" width="3.6" height="5.2"/>
			</g>
			<g>
				<rect x="1178.9" y="391.9" class="st11" width="3" height="4.7"/>
				<rect x="1184.6" y="391.9" class="st11" width="3" height="4.7"/>
				<rect x="1178.9" y="398" class="st11" width="3" height="4.7"/>
				<rect x="1184.6" y="398" class="st11" width="3" height="4.7"/>
				<rect x="1178.9" y="404" class="st11" width="3" height="4.7"/>
				<rect x="1184.6" y="404" class="st11" width="3" height="4.7"/>
				<rect x="1178.9" y="409.8" class="st11" width="3" height="4.7"/>
				<rect x="1184.6" y="409.8" class="st11" width="3" height="4.7"/>
				<rect x="1178.9" y="415.7" class="st11" width="3" height="4.7"/>
				<rect x="1184.6" y="415.7" class="st11" width="3" height="4.7"/>
			</g>
			<g>
				<rect x="1178.9" y="422.1" class="st11" width="3" height="4.7"/>
				<rect x="1184.6" y="422.1" class="st11" width="3" height="4.7"/>
				<rect x="1178.9" y="428.2" class="st11" width="3" height="4.7"/>
				<rect x="1184.6" y="428.2" class="st11" width="3" height="4.7"/>
				<rect x="1178.9" y="434.2" class="st11" width="3" height="4.7"/>
				<rect x="1184.6" y="434.2" class="st11" width="3" height="4.7"/>
				<rect x="1178.9" y="439.9" class="st11" width="3" height="4.7"/>
				<rect x="1184.6" y="439.9" class="st11" width="3" height="4.7"/>
				<rect x="1178.9" y="445.8" class="st11" width="3" height="4.7"/>
				<rect x="1184.6" y="445.8" class="st11" width="3" height="4.7"/>
			</g>
		</g>
	</g>
	<rect x="54.2" y="508.2" class="st1" width="2848.6" height="169"/>
</g>
</svg>
