<?xml version="1.0" encoding="UTF-8"?>
<svg id="Layer_1" xmlns="http://www.w3.org/2000/svg" xmlns:xlink="http://www.w3.org/1999/xlink" version="1.1" viewBox="0 0 2784.9 429.6">
  <!-- Generator: Adobe Illustrator 29.2.1, SVG Export Plug-In . SVG Version: 2.1.0 Build 116)  -->
  <defs>
    <style>
      .st0 {
        stroke-width: .1px;
      }

      .st0, .st1, .st2 {
        fill: #222d3b;
      }

      .st0, .st3, .st4, .st5, .st2 {
        stroke: #231f20;
      }

      .st6 {
        fill: #231f20;
      }

      .st3 {
        stroke-width: .9px;
      }

      .st3, .st4, .st5 {
        fill: none;
      }

      .st4, .st7 {
        stroke-width: .2px;
      }

      .st5 {
        stroke-width: .2px;
      }

      .st2 {
        stroke-width: .3px;
      }

      .st8 {
        fill: #595a5c;
      }

      .st7 {
        fill: #fff;
        stroke: #eb2127;
      }
    </style>
  </defs>
  <g>
    <polygon class="st1" points="218.7 301.3 1062.6 397 1060.7 404.4 241.2 331 218.7 301.3"/>
    <path class="st4" d="M165.9,289.9s90.5-27.4,182.2-85.6c22.6.2,19.2,1.2,29.7,1.2,127.6,121.4,212.2,137.1,212.2,137.1,0,0,62.9,14.2,141.5-56.5,4.4-.2,10.9-.9,19.3-1.2,62.3,87.4,103.6,88.8,103.6,88.8,0,0,38.2.6,65.1-46.8"/>
    <path class="st4" d="M177.1,299.7s113.6-38.6,199.6-93.2c21.2.2-37.3,0-27.4,0-1.8-1.7,142.9,142.4,197.3,136.8l42.7,2.2s87.5,6.6,161.2-59.7c4.1-.2-27.5.9-19.7.6,68.8,80.4,121.3,86.9,121.3,86.9,0,0,59.3-1.9,84.6-46.3"/>
    <path class="st4" d="M936.2,327.8s25.1,66,53.9,65.1"/>
    <path class="st5" d="M919.8,327.3s29.6,65.2,56.1,64.3"/>
    <polygon class="st1" points="579.3 341.2 577.9 431.4 605.3 431.8 603 342.6 579.3 341.2"/>
    <polygon class="st1" points="557.5 340.3 579.3 341.2 577.9 431.4 551 431.4 557.5 340.3"/>
    <path class="st1" d="M710.8,429.6l1.4-3.6,7-.9,2.3-5.3,3.3-4.9,4.2-129.6h9.3v-2.7h1.9v2.2h10.7l1.9,128.2,3.3,5.3v3.6l.9,2.7,9.3,1.3v4.4l-55.5-.7ZM739.2,385.2l-7,6.9-.5,3.2,5.6,6.4,7.4-5.5.5-3.7-6-7.3ZM729.9,387.9l6.5-5.5-5.6-5.9-.9,11.4ZM747.1,376.5l-5.6,6.4,5.6,5.9v-12.3ZM738.2,379.7l6.5-6.4-13-.5,6.5,6.9ZM747.1,359.1v-3.7l-8.4-9.6-8.4,9.1v2.7l16.8,1.5ZM730.8,350.4l6-7.8-6-5.9v13.7ZM741.5,343.1l6,7.5-.2-14.2-5.8,6.7ZM746.1,332.5l-6.5-7.5-7.2,7.5,6.7,8.2,7-8.2ZM747.3,329.1v-13.3l-5.8,6.2,5.8,7.1ZM736.8,321.6l-4.7-5.9-.9,13.7,5.6-7.8ZM739.4,304.2l-6.7,8,6.3,7.3,6.7-7.8-6.3-7.5ZM741.7,301.9l5.3,6.6.2-12.6-5.5,6ZM740.1,299.6l4.9-7.5-11.2.2,6.3,7.3ZM732.2,295.5l.2,12.8,4.6-6.9-4.8-5.9ZM742.9,287.4h-3v2.5h3v-2.5ZM747.3,287.4h-3v2.5h3v-2.5ZM738.5,287.4h-3v2.5h3v-2.5ZM734.1,287.4h-3v2.5h3v-2.5Z"/>
    <path class="st6" d="M905.1,432.6l1.1-2.6,5.6-.6,1.9-3.9,2.6-3.6,3.3-94.9h7.4v-2h1.5v1.6h8.5l1.5,94,2.6,3.9v2.6l.7,1.9,7.4,1v3.3l-44.1-.7ZM927.7,400.1l-5.6,5-.4,2.3,4.5,4.7,5.9-4,.4-2.7-4.8-5.3ZM920.3,402.1l5.2-4-4.5-4.4-.7,8.4ZM934,393.7l-4.5,4.7,4.5,4.4v-9.1ZM926.9,396l5.2-4.7-10.4-.3,5.2,5ZM934,380.9v-2.7l-6.7-7-6.7,6.7v2l13.4,1ZM921,374.6l4.8-5.7-4.8-4.4v10.1ZM929.5,369.2l4.8,5.5-.2-10.4-4.6,4.9ZM933.3,361.5l-5.2-5.5-5.8,5.5,5.4,6,5.6-6ZM934.2,359v-9.7l-4.6,4.5,4.6,5.2ZM925.8,353.5l-3.7-4.4-.7,10.1,4.4-5.7ZM927.9,340.7l-5.4,5.9,5,5.4,5.4-5.7-5-5.6ZM929.7,339l4.3,4.9.2-9.2-4.5,4.3ZM928.4,337.4l3.9-5.5-8.9.2,5,5.3ZM922.1,334.3l.2,9.4,3.7-5-3.9-4.4ZM930.7,328.4h-2.4v1.8h2.4v-1.8ZM934.2,328.4h-2.4v1.8h2.4v-1.8ZM927.1,328.4h-2.4v1.8h2.4v-1.8ZM923.6,328.4h-2.4v1.8h2.4v-1.8Z"/>
    <path class="st1" d="M317.2,429.3l2.1-5.5,10.7-1.4,3.6-8.3,5-7.6,6.4-201.3h14.2v-4.1h2.8v3.4h16.3l2.8,199.2,5,8.3v5.5l1.4,4.1,14.2,2.1v6.9l-84.5-1.3ZM360.6,360.3l-10.7,10.7-.7,5,8.5,10,11.4-8.5.7-5.7-9.2-11.5ZM346.4,364.6l9.9-8.5-8.5-9.2-1.4,17.7ZM372.7,346.8l-8.5,10,8.5,9.2v-19.2ZM359.2,351.8l10-10-19.9-.7,9.9,10.7ZM372.7,319.8v-5.7l-12.8-14.9-12.8,14.2v4.3l25.6,2.1ZM347.8,306.3l9.2-12.1-9.2-9.2v21.3ZM364.1,294.9l9.2,11.7-.4-22-8.8,10.3ZM371.2,278.6l-10-11.7-11,11.7,10.3,12.8,10.7-12.8ZM373,273.2v-20.6l-8.9,9.6,8.9,11ZM357,261.5l-7.1-9.2-1.4,21.3,8.5-12.1ZM360.9,234.5l-10.3,12.4,9.6,11.4,10.3-12.1-9.6-11.7ZM364.5,231l8.2,10.3.3-19.5-8.5,9.2ZM362,227.4l7.5-11.7-17.1.4,9.6,11.3ZM349.9,221l.3,19.9,7.1-10.7-7.4-9.2ZM366.3,208.4h-4.6v3.9h4.6v-3.9ZM373,208.4h-4.6v3.9h4.6v-3.9ZM359.5,208.4h-4.6v3.9h4.6v-3.9ZM352.8,208.4h-4.6v3.9h4.6v-3.9Z"/>
    <polygon class="st7" points="353.5 364.5 363.7 375.6 353.5 389.6 345.1 375.6 353.5 364.5"/>
    <rect class="st1" x="570" y="336.7" width="21.7" height="5.1"/>
    <path class="st1" d="M0,249.9l10.3-8.2c12.8,3.8,12.8-1.9,12.8-1.9l6.4,7.6,2.6-5.7,6.4,4.4,7-1.9,4.5,5,14.7,2.5,3.2,3.8,3.2.6,10.9,6.3,8.3,2.5,1.9,3.8,5.1-.6,9.6,3.8,3.8-2.5,7,1.3s8.3-5.7,9-7.6c.6-1.9,17.3,5.7,20.5,8.8,7-2.5,12.2,3.8,12.2,3.8l10.3,8.2,20.5-.6,5.1,5,5.8,4.4.6,4.4,5.1,1.3,5.1-5,7-1.9s19.2,8.2,22.4,13.2c9,2.5,20.5,5,20.5,5l14.1,8.8,17.9,10.7,22.4-.6,7.7,2.5,23.7,19.5,14.7,10.7,23.1,15.8,5.8,14.5s1.3,8.8,3.8,10.7c2.6,1.9,6.4,12.6,6.4,12.6l9.3,3.5,14.9,3.7,67.8,9.3L0,429.6v-179.7Z"/>
    <path class="st1" d="M1149.3,430.6l-736.3.3-17.7-.5,53.9-13,29.7-4.6h26l19.5-1.9,12.1-.9,22.3,2.8,49.3-.9,23.2-.9s11.2-9.3,13.9-9.3,26-4.6,28.8-4.6,39,.9,39,.9l59.5,6.5,35.3,4.6,20.4-4.6,33.5,5.6,13-7.4,13,5.6,69.7-5.6,18.6-11.1,85.5,8.4,18.8.7-.2-15.6,6.5-5.6v-56.7l.2-18.8,21.1-.5.2,5.3h3.5v92.5l7.4-3.3,2.8-6.5h4.6l4.6-2.8h7.4l4.7,1.9,4.6,2.8.9,8.4.7,28.8Z"/>
    <polygon class="st1" points="966.4 404.4 966.4 400.2 969.6 399.6 970.1 392.2 972.8 388.5 981.3 384.8 987.7 387.4 993 382.6 997.8 383.7 1001 380 1001.5 375.2 1003.1 375.2 1005.8 370.9 1008.9 375.2 1013.2 374.1 1013.2 361.9 1040.8 358.2 1041.3 350.8 1050.4 350.8 1051.4 356.6 1056.8 357.7 1056.8 382.6 1060.5 382.6 1060.5 380 1066.8 379.4 1066.3 375.2 1080.1 375.2 1080.1 370.4 1093.4 369.9 1093.9 377.8 1105.1 377.3 1109.9 369.3 1113.1 374.7 1127.4 373.6 1127.4 380 1136.5 380 1135.9 386.9 1155.1 384.8 1155.1 379.4 1163 380 1163.6 375.7 1167.3 375.7 1167.3 371.5 1186.4 370.4 1186.9 345.4 1196 343.8 1196 340.1 1215.1 339.1 1215.6 343.3 1225.7 343.3 1226.2 304.5 1239 303.5 1239 300.3 1257.1 299.7 1258.1 302.9 1270.3 304 1271.4 389.5 1275.7 390.1 1276.2 330 1285.2 329 1286.8 326.3 1293.1 326.8 1295.9 315.7 1298.9 326.8 1305.4 327.4 1307 329.5 1315.5 331.1 1316.6 362.4 1325.1 361.4 1325.6 363 1338.9 362.4 1338.4 320.5 1341 320.5 1341 313 1369.7 310.9 1369.7 305 1372.4 305 1371.3 294.4 1417.5 293.9 1417.5 304.5 1419.7 304.5 1419.7 321 1419.7 326.8 1422.3 321 1422.3 302.9 1432.9 300.8 1456.8 302.4 1458.4 321 1482.4 319.9 1482.4 323.1 1499.9 321 1499.9 326.3 1504.1 326.3 1504.7 332.2 1538.1 331.6 1538.1 322.1 1540.8 321.5 1540.8 318.3 1549.3 316.2 1549.3 305.6 1555.7 305 1555.7 301.9 1603 302.4 1603 310.9 1607.2 312 1607.7 330.6 1633.8 331.1 1635.4 327.4 1647.6 326.3 1648.1 330 1651.3 330.6 1651.8 338 1654.5 338.5 1654.5 343.3 1657.2 344.4 1657.7 357.7 1671.5 358.2 1671.5 367.2 1675.8 363.5 1680 367.2 1686.9 367.2 1686.4 363 1694.4 363 1693.8 279.5 1701.8 279 1703.4 272.6 1708.2 270.5 1730.5 272.6 1731 278.5 1739.5 278.5 1741.6 356.1 1758.6 354.5 1758.6 352.3 1761.8 350.8 1768.2 310.4 1767.1 280.6 1770.8 278 1773 241.8 1775.1 241.8 1781 279 1784.7 280.1 1785.2 306.6 1793.2 361.4 1796.4 361.4 1796.9 324.7 1827.2 323.1 1827.2 350.8 1834.6 350.8 1842.6 356.1 1860.1 356.1 1862.8 351.8 1867.6 351.8 1868.6 369.3 1873.4 368.3 1903.7 369.3 1935.4 381.6 1962.8 391.7 1974 428.9 965.9 430.1 966.4 404.4"/>
    <path class="st1" d="M1634.9,372.4l4.5-130.6,1.4-.5,1.4-9.1,17.7.5,1.1,8.6.8,1.1,1.4,129.6-28.3.4ZM1649,237.1l-1.5-.7-1.1.7v4.4h2.6v-4.4ZM1652.9,241.5h2.9c0,.1,0-3.8,0-3.8l-1.5-1.7-1.4,1.7v3.8ZM1644.7,264.4h4.1v-11.7l-1.4-2.2-2.6,1.8v12.1ZM1653.3,264.4h4.4v-11.8l-2.6-2.2-1.9,1.9v12.1ZM1642.2,251.3l-1.1-2.6-.8,1.8v11.9l2.1,1.5-.2-12.6ZM1659.4,264l1.8-1v-10.4l-.8-2.6-1,3v11Z"/>
    <path class="st1" d="M1633.7,289.6c-3,.1-8.8-2.1-8.8-2.1-2.1-.8-4.4-2.3-5-3.3s-1.4,0-2,1.7c-.6,1.8-1.9,7.2-3.2,8s-5.2,1.3-7.4.6l-7.7-.7c-2.3.3-3.4,2.1-2.4,4,.9,1.9,3.7,6,2.8,6-.9-.1-2.4,2-2.1,3.6s-1,4.2-3,3.6-8.5-6.1-10.8-5.8l-3.3,1c-2.1.8-3.8,3.4-3.6,5.7l1.3,12.5c.7,2.2,0,4.7-1.6,5.7s-6.7,3.3-8,3.5-5.4,7.7-6.7,9.6c0,0-7.9,12.1-3.9,17.5,5,6.8,17.5,2.8,25.1,3.5,17.3,1.6,35.5,2.4,54.2,3.3,38.2,1.8,111.9,1.7,111.9,1.7,2.3,0,3.2-1.6,2.1-3.6l-2.1-8.5c.8-2.1.5-4.9-.8-6-1.3-1.2-7.1-4.1-6.9-5.2s-.2-4.8-1.6-5.9c-1.3-1.1-3.6-4-2.8-4.8.9-.8,1-3.9,0-6l-4.2-3.7c-2.1-.9-3.9-.7-3.9.5s-2.2,4.7-4.3,5.5l-5.5,1.8c-2.2.6-3.9-.4-3.7-2.1.2-1.8-.6-5.5-2.9-5.4l-8.4,4.4c-1.6,1.7-2.7,1.2-2.6-1.1l-9.3-8c-.5-2.2-1.2-4.1-1.5-4-.3,0,1.7-1.3,3.1-3s2.4-4.5.2-4.1h-9.3c-2.2.6-3.6-.8-3.1-3.1v-3.4c.6-2.2-.6-3.5-2.9-2.9l-8.5,1c-2.2.6-2.7-.2-.9-1.8l3.6-5.6c1.7-1.6,1.2-3.2-1-3.5s-7.3-.5-7.3-1.3-2.4-3.3-4.7-3.7c0,0-16.5-3.1-29.6-2.7"/>
    <g>
      <path class="st1" d="M2784.9,219.9s-650.3,129.8-725.1,173.5c0,0-1.4,8-1.4,9.9,163.2-62.5,726.5-135.4,726.5-135.4v-48Z"/>
      <path class="st2" d="M2411,429.2l5.6-7.5,5.6-2.8,6.6.9,9.4-1.9,1.9-10.3,5.6-2.8-.9-10.3,1.9-2.8-.9-195.6,1.9-3.8-2.8-61.1,1.9-3.8-1.9-54.5-1-41.4,4.7-13.2.9-9.4,3.8,11.3,35.7,9.4,3.8-9.4,4.7,13.2,1.9,46.1,1.9,50.8,2.8,6.6,1.9,65.8,1.9,6.6v67.7l4.7,116.6,5.6,12.2.9,5.6,10.3,5.6,7.5,4.7,4.7,7.5h-130.6ZM2456.2,44.6l.9,29.2,3.8,3.8,27.3,3.8,1-29.2-6.6-6.6-26.4-1ZM2458.1,98.2l.9,31,5.6,4.7,20.7,2.8,2.8-6.6v-26.3l-7.5-3.8-22.5-1.8ZM2463.7,156.5l-3.8,9.4,1.9,36.7,28.2,2.8-.9-40.4-4.7-5.6-20.7-2.9ZM2466.5,230.8l-3.8,8.5.9,48,28.2-2.8v-45.1l-6.6-9.4-18.7.8ZM2465.6,316.3v13.2l7.5-9.4-7.5-3.8ZM2482.5,320.1l7.5,8.5v-16l-7.5,7.5ZM2478.7,325.7l-10.4,13.2,19.8.9-9.4-14.1ZM2480.6,360.5l6.6-14.1h-17.9l11.3,14.1ZM2465.6,354l-.9,22.6,9.4-10.3-8.5-12.3Z"/>
      <path class="st0" d="M2068.7,430.1l1.9-2.5,1.9-1,2.2.3,3.2-.6.6-3.5,1.9-1-.3-3.5.6-1-.3-66.1.7-1.3-1-20.7.6-1.3-.6-18.4-.3-14,1.6-4.4.3-3.2,1.3,3.8,12.1,3.2,1.3-3.2,1.6,4.4.6,15.6.6,17.2.9,2.2.6,22.3.6,2.2v22.9l1.6,39.4,1.9,4.1.3,1.9,3.5,1.9,2.5,1.6,1.6,2.5h-44v.2ZM2084,300.1l.3,9.9,1.3,1.3,9.2,1.3.3-9.9-2.2-2.2-8.9-.4ZM2084.6,318.2l.3,10.5,1.9,1.6,7,1,1-2.2v-8.9l-2.5-1.3-7.7-.7ZM2086.5,337.9l-1.3,3.2.6,12.4,9.5.9-.3-13.7-1.6-1.9-6.9-.9ZM2087.5,363l-1.3,2.9.3,16.2,9.5-1v-15.2l-2.2-3.2-6.3.3ZM2087.1,392v4.5l2.6-3.2-2.6-1.3ZM2092.9,393.2l2.5,2.9v-5.4l-2.5,2.5ZM2091.6,395.2l-3.5,4.5,6.7.3-3.2-4.8ZM2092.2,406.9l2.2-4.8h-6l3.8,4.8ZM2087.1,404.7l-.3,7.6,3.2-3.5-2.9-4.1Z"/>
      <path class="st3" d="M2083,291.8s-9.2,93.2,103.8,59.4c110-27.3,300.7-320,305.5-320.9,183.4,74.4,292.6,71.9,292.6,71.9"/>
      <path class="st3" d="M2448.6,18.2s-159.6,300.5-268.3,335c-68.4,4.2-85.3-58.3-85.3-58.3"/>
      <path class="st3" d="M2497.8,35.1c24,14.1,287.1,67,287.1,67"/>
      <line class="st3" x1="2082.4" y1="294.7" x2="2053.4" y2="398.3"/>
      <line class="st3" x1="2082.7" y1="357.4" x2="2069.7" y2="392.7"/>
      <path class="st0" d="M2169.8,429.4l-7.8-4.2-7.1-.7-4.9-5.6-9.2-.7-10.6-3.5h-11.2l-7.8-1.4-9.2-2.1s-21.2-5.6-23.3-6.3c-2.1-.7-9.9-4.2-9.9-4.2l-4.9.7-4.2-5.6-8.5-2.1-7.8-.7-7.8-.7h-7.8l-9.9-2.1-7.1,2.8-13.4-3.5h-14.1l-11.3.7-14.1-1.4-9.9.7-14.1-2.1-10.6,2.1-12.7-2.1-10.6,2.8-16.2-.7v36.4l184.6,4.2,101.4-.7Z"/>
    </g>
    <path class="st1" d="M2341.3,426.4l5.5-16.2,8.2-1.6h6.8l8.2-3.2,4.1,9.7h19.1l9.6-8.1,10.9,3.2,4.1-8.1,4.1,11.3,10.9,1.6,9.6,6.5h15s13.7,1.6,13.7-3.2,6.8-30.7,6.8-30.7l2.7-22.6,8.2-9.7,9.6-16.1,5.5-21v-16.2l8.2-12.9s9.5-3.2,13.7-3.2,16.4-1.6,16.4-1.6l20.5-1.6,30.1-6.5,15-1.6,20.5-4.8,93.9-69.4,18.2-11.9s7.3-9.7,10-9.7,11.8-3.2,11.8-3.2c0,0,5.5-8.6,8.2-9.7,2.7-1.1,10.9-1.1,10.9-1.1l4.1-4.3v269.5l-444.3.8v-4.4h.2Z"/>
    <g>
      <path class="st8" d="M1950.7,360s3.9-5.7,13.7-6c9.8-.3,14.1,5.6,14.1,5.6l-13.9-2-13.9,2.4Z"/>
      <path class="st1" d="M1990.8,396.7l-50.9-.7v-1.9l.2-16.4-1-1-.4-1.5h1.5l.5-5.6-.6-1.3h2.3l.8-1.6v-1.9c0,0,4.4-2.7,4.4-2.7,0,0,5.7-5.3,17.6-4.9,13.1.1,16.1,3.8,16.1,3.8l4.2,1.9.9.8-.7.8v.9l1.6,2h2.2c0-.1-.5,1.3-.5,1.3l.5,5.4h1.5l-.2,1.6-1,.9.2.7-.2.7.7.2-.6,1.9.6,10.2.3,6.4ZM1980.8,394.5l-.7-13.1s-1.6-5.4-6.1-5.9c-3.1-.6-5.7,4.6-5.7,4.6l.4,13.6,12.1.8ZM1960.8,394.6v-15c-.1,0-1.6-3.8-5.9-3.8-3.1-.1-5.6,6.3-5.6,6.3l-.4,12.5h11.9Z"/>
    </g>
  </g>
  <path class="st1" d="M1155.2,344.1s-1.6-62.6-.4-82.2c1.5-24.3,4.5-52.7,7.8-55.3,3.4-2.6,19.4-3.4,22.4,0s9,38.9,8.6,55.7c0,9,.4,43,.4,43h9v84.1l-46.3.9-1.5-46.2Z"/>
</svg>